<svg width="533" height="103" viewBox="0 0 533 103" fill="none" xmlns="http://www.w3.org/2000/svg">
<path d="M156.659 69H152.227L165.045 34.0909H169.409L182.227 69H177.795L167.364 39.6136H167.091L156.659 69ZM158.295 55.3636H176.159V59.1136H158.295V55.3636ZM197.756 69.5455C195.301 69.5455 193.188 68.9659 191.415 67.8068C189.642 66.6477 188.278 65.0511 187.324 63.017C186.369 60.983 185.892 58.6591 185.892 56.0455C185.892 53.3864 186.381 51.0398 187.358 49.0057C188.347 46.9602 189.722 45.3636 191.483 44.2159C193.256 43.0568 195.324 42.4773 197.688 42.4773C199.528 42.4773 201.188 42.8182 202.665 43.5C204.142 44.1818 205.352 45.1364 206.295 46.3636C207.239 47.5909 207.824 49.0227 208.051 50.6591H204.028C203.722 49.4659 203.04 48.4091 201.983 47.4886C200.938 46.5568 199.528 46.0909 197.756 46.0909C196.188 46.0909 194.813 46.5 193.631 47.3182C192.46 48.125 191.545 49.267 190.886 50.7443C190.239 52.2102 189.915 53.9318 189.915 55.9091C189.915 57.9318 190.233 59.6932 190.869 61.1932C191.517 62.6932 192.426 63.858 193.597 64.6875C194.778 65.517 196.165 65.9318 197.756 65.9318C198.801 65.9318 199.75 65.75 200.602 65.3864C201.455 65.0227 202.176 64.5 202.767 63.8182C203.358 63.1364 203.778 62.3182 204.028 61.3636H208.051C207.824 62.9091 207.261 64.3011 206.364 65.5398C205.477 66.767 204.301 67.7443 202.835 68.4716C201.381 69.1875 199.688 69.5455 197.756 69.5455ZM224.568 69.5455C222.114 69.5455 220 68.9659 218.227 67.8068C216.455 66.6477 215.091 65.0511 214.136 63.017C213.182 60.983 212.705 58.6591 212.705 56.0455C212.705 53.3864 213.193 51.0398 214.17 49.0057C215.159 46.9602 216.534 45.3636 218.295 44.2159C220.068 43.0568 222.136 42.4773 224.5 42.4773C226.341 42.4773 228 42.8182 229.477 43.5C230.955 44.1818 232.165 45.1364 233.108 46.3636C234.051 47.5909 234.636 49.0227 234.864 50.6591H230.841C230.534 49.4659 229.852 48.4091 228.795 47.4886C227.75 46.5568 226.341 46.0909 224.568 46.0909C223 46.0909 221.625 46.5 220.443 47.3182C219.273 48.125 218.358 49.267 217.699 50.7443C217.051 52.2102 216.727 53.9318 216.727 55.9091C216.727 57.9318 217.045 59.6932 217.682 61.1932C218.33 62.6932 219.239 63.858 220.409 64.6875C221.591 65.517 222.977 65.9318 224.568 65.9318C225.614 65.9318 226.562 65.75 227.415 65.3864C228.267 65.0227 228.989 64.5 229.58 63.8182C230.17 63.1364 230.591 62.3182 230.841 61.3636H234.864C234.636 62.9091 234.074 64.3011 233.176 65.5398C232.29 66.767 231.114 67.7443 229.648 68.4716C228.193 69.1875 226.5 69.5455 224.568 69.5455ZM251.722 69.5455C249.199 69.5455 247.023 68.9886 245.193 67.875C243.375 66.75 241.972 65.1818 240.983 63.1705C240.006 61.1477 239.517 58.7955 239.517 56.1136C239.517 53.4318 240.006 51.0682 240.983 49.0227C241.972 46.9659 243.347 45.3636 245.108 44.2159C246.881 43.0568 248.949 42.4773 251.312 42.4773C252.676 42.4773 254.023 42.7045 255.352 43.1591C256.682 43.6136 257.892 44.3523 258.983 45.375C260.074 46.3864 260.943 47.7273 261.591 49.3977C262.239 51.0682 262.562 53.125 262.562 55.5682V57.2727H242.381V53.7955H258.472C258.472 52.3182 258.176 51 257.585 49.8409C257.006 48.6818 256.176 47.767 255.097 47.0966C254.028 46.4261 252.767 46.0909 251.312 46.0909C249.71 46.0909 248.324 46.4886 247.153 47.2841C245.994 48.0682 245.102 49.0909 244.477 50.3523C243.852 51.6136 243.54 52.9659 243.54 54.4091V56.7273C243.54 58.7045 243.881 60.3807 244.562 61.7557C245.256 63.1193 246.216 64.1591 247.443 64.875C248.67 65.5795 250.097 65.9318 251.722 65.9318C252.778 65.9318 253.733 65.7841 254.585 65.4886C255.449 65.1818 256.193 64.7273 256.818 64.125C257.443 63.5114 257.926 62.75 258.267 61.8409L262.153 62.9318C261.744 64.25 261.057 65.4091 260.091 66.4091C259.125 67.3977 257.932 68.1705 256.511 68.7273C255.091 69.2727 253.494 69.5455 251.722 69.5455ZM268.682 78.8182V42.8182H272.568V46.9773H273.045C273.341 46.5227 273.75 45.9432 274.273 45.2386C274.807 44.5227 275.568 43.8864 276.557 43.3295C277.557 42.7614 278.909 42.4773 280.614 42.4773C282.818 42.4773 284.761 43.0284 286.443 44.1307C288.125 45.233 289.438 46.7955 290.381 48.8182C291.324 50.8409 291.795 53.2273 291.795 55.9773C291.795 58.75 291.324 61.1534 290.381 63.1875C289.438 65.2102 288.131 66.7784 286.46 67.892C284.79 68.9943 282.864 69.5455 280.682 69.5455C279 69.5455 277.653 69.267 276.642 68.7102C275.631 68.142 274.852 67.5 274.307 66.7841C273.761 66.0568 273.341 65.4545 273.045 64.9773H272.705V78.8182H268.682ZM272.636 55.9091C272.636 57.8864 272.926 59.6307 273.506 61.142C274.085 62.642 274.932 63.8182 276.045 64.6705C277.159 65.5114 278.523 65.9318 280.136 65.9318C281.818 65.9318 283.222 65.4886 284.347 64.6023C285.483 63.7045 286.335 62.5 286.903 60.9886C287.483 59.4659 287.773 57.7727 287.773 55.9091C287.773 54.0682 287.489 52.4091 286.92 50.9318C286.364 49.4432 285.517 48.267 284.381 47.4034C283.256 46.5284 281.841 46.0909 280.136 46.0909C278.5 46.0909 277.125 46.5057 276.011 47.3352C274.898 48.1534 274.057 49.3011 273.489 50.7784C272.92 52.2443 272.636 53.9545 272.636 55.9091ZM309.318 42.8182V46.2273H295.75V42.8182H309.318ZM299.705 36.5455H303.727V61.5C303.727 62.6364 303.892 63.4886 304.222 64.0568C304.563 64.6136 304.994 64.9886 305.517 65.1818C306.051 65.3636 306.614 65.4545 307.205 65.4545C307.648 65.4545 308.011 65.4318 308.295 65.3864C308.58 65.3295 308.807 65.2841 308.977 65.25L309.795 68.8636C309.523 68.9659 309.142 69.0682 308.653 69.1705C308.165 69.2841 307.545 69.3409 306.795 69.3409C305.659 69.3409 304.545 69.0966 303.455 68.608C302.375 68.1193 301.477 67.375 300.761 66.375C300.057 65.375 299.705 64.1136 299.705 62.5909V36.5455ZM326.065 69.5455C323.543 69.5455 321.366 68.9886 319.537 67.875C317.719 66.75 316.315 65.1818 315.327 63.1705C314.349 61.1477 313.861 58.7955 313.861 56.1136C313.861 53.4318 314.349 51.0682 315.327 49.0227C316.315 46.9659 317.69 45.3636 319.452 44.2159C321.224 43.0568 323.293 42.4773 325.656 42.4773C327.02 42.4773 328.366 42.7045 329.696 43.1591C331.026 43.6136 332.236 44.3523 333.327 45.375C334.418 46.3864 335.287 47.7273 335.935 49.3977C336.582 51.0682 336.906 53.125 336.906 55.5682V57.2727H316.724V53.7955H332.815C332.815 52.3182 332.52 51 331.929 49.8409C331.349 48.6818 330.52 47.767 329.44 47.0966C328.372 46.4261 327.111 46.0909 325.656 46.0909C324.054 46.0909 322.668 46.4886 321.497 47.2841C320.338 48.0682 319.446 49.0909 318.821 50.3523C318.196 51.6136 317.884 52.9659 317.884 54.4091V56.7273C317.884 58.7045 318.224 60.3807 318.906 61.7557C319.599 63.1193 320.56 64.1591 321.787 64.875C323.014 65.5795 324.44 65.9318 326.065 65.9318C327.122 65.9318 328.077 65.7841 328.929 65.4886C329.793 65.1818 330.537 64.7273 331.162 64.125C331.787 63.5114 332.27 62.75 332.611 61.8409L336.497 62.9318C336.088 64.25 335.401 65.4091 334.435 66.4091C333.469 67.3977 332.276 68.1705 330.855 68.7273C329.435 69.2727 327.838 69.5455 326.065 69.5455ZM352.912 69.5455C350.73 69.5455 348.804 68.9943 347.134 67.892C345.463 66.7784 344.156 65.2102 343.213 63.1875C342.27 61.1534 341.798 58.75 341.798 55.9773C341.798 53.2273 342.27 50.8409 343.213 48.8182C344.156 46.7955 345.469 45.233 347.151 44.1307C348.832 43.0284 350.776 42.4773 352.98 42.4773C354.685 42.4773 356.031 42.7614 357.02 43.3295C358.02 43.8864 358.781 44.5227 359.304 45.2386C359.838 45.9432 360.253 46.5227 360.548 46.9773H360.889V34.0909H364.912V69H361.026V64.9773H360.548C360.253 65.4545 359.832 66.0568 359.287 66.7841C358.741 67.5 357.963 68.142 356.952 68.7102C355.94 69.267 354.594 69.5455 352.912 69.5455ZM353.457 65.9318C355.071 65.9318 356.435 65.5114 357.548 64.6705C358.662 63.8182 359.509 62.642 360.088 61.142C360.668 59.6307 360.957 57.8864 360.957 55.9091C360.957 53.9545 360.673 52.2443 360.105 50.7784C359.537 49.3011 358.696 48.1534 357.582 47.3352C356.469 46.5057 355.094 46.0909 353.457 46.0909C351.753 46.0909 350.332 46.5284 349.196 47.4034C348.071 48.267 347.224 49.4432 346.656 50.9318C346.099 52.4091 345.821 54.0682 345.821 55.9091C345.821 57.7727 346.105 59.4659 346.673 60.9886C347.253 62.5 348.105 63.7045 349.23 64.6023C350.366 65.4886 351.776 65.9318 353.457 65.9318Z" fill="#2B2B2B"/>
<path fill-rule="evenodd" clip-rule="evenodd" d="M99.5774 59.5305L95.6316 59.0158C95.8882 57.0486 96.0208 55.0408 96.0208 53C96.0208 50.9592 95.8882 48.9514 95.6316 46.9842L99.5774 46.4695C99.8562 48.6069 100 50.7866 100 53C100 55.2134 99.8562 57.3931 99.5774 59.5305ZM96.206 33.8606L92.5303 35.3849C90.9797 31.6457 88.9493 28.1535 86.5148 24.9855L89.67 22.5608C92.3139 26.0014 94.5203 29.7957 96.206 33.8606ZM80.4392 13.33L78.0145 16.4852C74.8465 14.0507 71.3543 12.0203 67.6151 10.4698L69.1394 6.79403C73.2043 8.47966 76.9986 10.6861 80.4392 13.33ZM56.5305 3.42261L56.0158 7.36842C54.0486 7.11183 52.0408 6.97924 50 6.97924C47.9592 6.97924 45.9514 7.11183 43.9842 7.36842L43.4695 3.42261C45.6069 3.14382 47.7866 3 50 3C52.2134 3 54.3931 3.14382 56.5305 3.42261ZM30.8606 6.79403L32.3849 10.4698C28.6457 12.0203 25.1535 14.0507 21.9855 16.4852L19.5608 13.33C23.0014 10.6861 26.7957 8.47966 30.8606 6.79403ZM10.33 22.5608C7.68607 26.0014 5.47966 29.7957 3.79402 33.8606L7.46975 35.3849C9.02034 31.6457 11.0507 28.1535 13.4852 24.9855L10.33 22.5608ZM0.422613 46.4695C0.143816 48.6069 0 50.7866 0 53C0 55.2134 0.143816 57.3931 0.422614 59.5305L4.36842 59.0158C4.11183 57.0486 3.97924 55.0408 3.97924 53C3.97924 50.9592 4.11183 48.9514 4.36842 46.9842L0.422613 46.4695ZM3.79403 72.1394L7.46975 70.6151C9.02034 74.3543 11.0507 77.8465 13.4852 81.0145L10.33 83.4392C7.68607 79.9986 5.47966 76.2043 3.79403 72.1394ZM19.5608 92.67L21.9855 89.5148C25.1535 91.9493 28.6457 93.9797 32.3849 95.5303L30.8606 99.206C26.7957 97.5203 23.0014 95.3139 19.5608 92.67ZM43.4695 102.577L43.9842 98.6316C45.9514 98.8882 47.9592 99.0208 50 99.0208C52.0408 99.0208 54.0486 98.8882 56.0158 98.6316L56.5305 102.577C54.3931 102.856 52.2134 103 50 103C47.7866 103 45.6069 102.856 43.4695 102.577ZM69.1394 99.206L67.6151 95.5303C71.3543 93.9797 74.8465 91.9493 78.0145 89.5148L80.4392 92.67C76.9986 95.3139 73.2043 97.5203 69.1394 99.206ZM89.67 83.4392L86.5148 81.0145C88.9493 77.8465 90.9797 74.3543 92.5303 70.6151L96.206 72.1394C94.5203 76.2043 92.3139 79.9986 89.67 83.4392Z" fill="#2B2B2B"/>
</svg>
