<svg width="44" height="64" viewBox="0 0 44 64" fill="none" xmlns="http://www.w3.org/2000/svg">
<path d="M22 0C9.86936 0 0 9.86936 0 22C0 34.1306 9.86936 44 22 44C34.1306 44 44 34.1306 44 22C44 9.86936 34.1306 0 22 0ZM22 1.75984C33.1608 1.75984 42.24 10.8397 42.24 21.9998C42.24 26.9923 40.4193 31.5647 37.4121 35.098C35.462 28.1972 31.0632 26.7308 27.0419 25.9168C30.0492 23.5744 31.7814 20.0165 31.6758 16.4004C31.5063 10.6266 27.7987 7.04 21.9998 7.04C16.5723 7.04 12.3195 11.2921 12.3195 16.7203C12.3195 20.2149 14.0512 23.6517 16.9688 25.9303C12.9365 26.7326 8.53773 28.1979 6.58759 35.098C3.58034 31.5648 1.75969 26.9923 1.75969 21.9998C1.75969 10.8396 10.8389 1.75984 21.9997 1.75984H22ZM8.02293 36.6173C9.56918 29.7723 13.4505 28.4243 17.3134 27.6565C17.9978 27.5202 18.5226 27.0169 18.6816 26.3435C18.8443 25.6597 18.5963 24.963 18.0365 24.5266C15.559 22.5942 14.0802 19.6755 14.0802 16.7191C14.0802 12.8795 16.856 8.79945 21.9999 8.79945C26.8885 8.79945 29.7736 11.5881 29.9154 16.4521C30.005 19.5103 28.5269 22.5292 25.9598 24.529C25.3999 24.9654 25.1538 25.6609 25.3165 26.3435C25.4767 27.0175 26.0003 27.5202 26.6847 27.6565C30.5488 28.425 34.4314 29.7737 35.9777 36.6173C32.3406 40.0959 27.417 42.2394 22 42.2394C16.5829 42.2394 11.6592 40.0958 8.02288 36.6173H8.02293Z" fill="#2B2B2B"/>
<path d="M22.3929 63.6429L13.8873 48.9107L30.8985 48.9107L22.3929 63.6429Z" fill="#2B2B2B"/>
</svg>
