<svg width="38" height="39" viewBox="0 0 38 39" fill="none" xmlns="http://www.w3.org/2000/svg">
<path fill-rule="evenodd" clip-rule="evenodd" d="M19 0.839233C8.51916 0.839233 0 9.35454 0 19.8392C0 30.3201 8.51916 38.8392 19 38.8392C29.4847 38.8392 38 30.3201 38 19.8392C38 9.35454 29.4847 0.839233 19 0.839233ZM19 2.56635C28.5517 2.56635 36.2727 10.2874 36.2727 19.8391C36.2727 29.3861 28.5517 37.1118 19 37.1118C9.45296 37.1118 1.72727 29.3861 1.72727 19.8391C1.72727 10.2874 9.45296 2.56635 19 2.56635Z" fill="#2B2B2B"/>
<path fill-rule="evenodd" clip-rule="evenodd" d="M12.4209 12.4943C12.0848 12.5271 11.7986 12.7528 11.6884 13.072C11.5778 13.3913 11.664 13.7455 11.9082 13.9787L17.7647 19.8487L11.9082 25.7052C11.5691 26.0443 11.5691 26.594 11.9082 26.9332C12.2474 27.2724 12.7971 27.2724 13.1363 26.9332L19.0063 21.0632L24.8628 26.9332C25.202 27.2724 25.7517 27.2724 26.0906 26.9332C26.4297 26.5941 26.4297 26.0444 26.0909 25.7052L20.2208 19.8487L26.0909 13.9787C26.3484 13.7299 26.4258 13.3477 26.2851 13.0181C26.1442 12.6886 25.8146 12.4802 25.4565 12.4943C25.2327 12.4997 25.02 12.5916 24.8628 12.751L19.0064 18.6074L13.1363 12.751C12.9725 12.585 12.7484 12.4925 12.5155 12.4943C12.4839 12.4928 12.4526 12.4928 12.4209 12.4943L12.4209 12.4943Z" fill="#2B2B2B"/>
</svg>
