<svg width="541" height="103" viewBox="0 0 541 103" fill="none" xmlns="http://www.w3.org/2000/svg">
<path d="M155.227 69V34.0909H176.159V37.8409H159.455V49.6364H174.591V53.3864H159.455V69H155.227ZM191.568 69.5455C189.205 69.5455 187.131 68.983 185.347 67.858C183.574 66.733 182.188 65.1591 181.188 63.1364C180.199 61.1136 179.705 58.75 179.705 56.0455C179.705 53.3182 180.199 50.9375 181.188 48.9034C182.188 46.8693 183.574 45.2898 185.347 44.1648C187.131 43.0398 189.205 42.4773 191.568 42.4773C193.932 42.4773 196 43.0398 197.773 44.1648C199.557 45.2898 200.943 46.8693 201.932 48.9034C202.932 50.9375 203.432 53.3182 203.432 56.0455C203.432 58.75 202.932 61.1136 201.932 63.1364C200.943 65.1591 199.557 66.733 197.773 67.858C196 68.983 193.932 69.5455 191.568 69.5455ZM191.568 65.9318C193.364 65.9318 194.841 65.4716 196 64.5511C197.159 63.6307 198.017 62.4205 198.574 60.9205C199.131 59.4205 199.409 57.7955 199.409 56.0455C199.409 54.2955 199.131 52.6648 198.574 51.1534C198.017 49.642 197.159 48.4205 196 47.4886C194.841 46.5568 193.364 46.0909 191.568 46.0909C189.773 46.0909 188.295 46.5568 187.136 47.4886C185.977 48.4205 185.119 49.642 184.562 51.1534C184.006 52.6648 183.727 54.2955 183.727 56.0455C183.727 57.7955 184.006 59.4205 184.562 60.9205C185.119 62.4205 185.977 63.6307 187.136 64.5511C188.295 65.4716 189.773 65.9318 191.568 65.9318ZM209.572 69V42.8182H213.459V46.7727H213.732C214.209 45.4773 215.072 44.4261 216.322 43.6193C217.572 42.8125 218.982 42.4091 220.55 42.4091C220.845 42.4091 221.214 42.4148 221.658 42.4261C222.101 42.4375 222.436 42.4545 222.663 42.4773V46.5682C222.527 46.5341 222.214 46.483 221.726 46.4148C221.249 46.3352 220.743 46.2955 220.209 46.2955C218.936 46.2955 217.8 46.5625 216.8 47.0966C215.811 47.6193 215.027 48.3466 214.447 49.2784C213.879 50.1989 213.595 51.25 213.595 52.4318V69H209.572ZM237.203 79.3636C235.26 79.3636 233.589 79.1136 232.192 78.6136C230.794 78.125 229.629 77.4773 228.697 76.6705C227.777 75.875 227.044 75.0227 226.499 74.1136L229.703 71.8636C230.067 72.3409 230.527 72.8864 231.084 73.5C231.641 74.125 232.402 74.6648 233.368 75.1193C234.345 75.5852 235.624 75.8182 237.203 75.8182C239.317 75.8182 241.061 75.3068 242.436 74.2841C243.811 73.2614 244.499 71.6591 244.499 69.4773V64.1591H244.158C243.862 64.6364 243.442 65.2273 242.896 65.9318C242.362 66.625 241.589 67.2443 240.578 67.7898C239.578 68.3239 238.226 68.5909 236.521 68.5909C234.408 68.5909 232.51 68.0909 230.828 67.0909C229.158 66.0909 227.834 64.6364 226.857 62.7273C225.891 60.8182 225.408 58.5 225.408 55.7727C225.408 53.0909 225.879 50.7557 226.822 48.767C227.766 46.767 229.078 45.2216 230.76 44.1307C232.442 43.0284 234.385 42.4773 236.589 42.4773C238.294 42.4773 239.646 42.7614 240.646 43.3295C241.658 43.8864 242.43 44.5227 242.964 45.2386C243.51 45.9432 243.93 46.5227 244.226 46.9773H244.635V42.8182H248.521V69.75C248.521 72 248.01 73.8295 246.987 75.2386C245.976 76.6591 244.612 77.6989 242.896 78.358C241.192 79.0284 239.294 79.3636 237.203 79.3636ZM237.067 64.9773C238.68 64.9773 240.044 64.608 241.158 63.8693C242.271 63.1307 243.118 62.0682 243.697 60.6818C244.277 59.2955 244.567 57.6364 244.567 55.7045C244.567 53.8182 244.283 52.1534 243.714 50.7102C243.146 49.267 242.305 48.1364 241.192 47.3182C240.078 46.5 238.703 46.0909 237.067 46.0909C235.362 46.0909 233.942 46.5227 232.805 47.3864C231.68 48.25 230.834 49.4091 230.266 50.8636C229.709 52.3182 229.43 53.9318 229.43 55.7045C229.43 57.5227 229.714 59.1307 230.283 60.5284C230.862 61.9148 231.714 63.0057 232.839 63.8011C233.976 64.5852 235.385 64.9773 237.067 64.9773ZM266.521 69.5455C264.158 69.5455 262.084 68.983 260.3 67.858C258.527 66.733 257.141 65.1591 256.141 63.1364C255.152 61.1136 254.658 58.75 254.658 56.0455C254.658 53.3182 255.152 50.9375 256.141 48.9034C257.141 46.8693 258.527 45.2898 260.3 44.1648C262.084 43.0398 264.158 42.4773 266.521 42.4773C268.885 42.4773 270.953 43.0398 272.726 44.1648C274.51 45.2898 275.896 46.8693 276.885 48.9034C277.885 50.9375 278.385 53.3182 278.385 56.0455C278.385 58.75 277.885 61.1136 276.885 63.1364C275.896 65.1591 274.51 66.733 272.726 67.858C270.953 68.983 268.885 69.5455 266.521 69.5455ZM266.521 65.9318C268.317 65.9318 269.794 65.4716 270.953 64.5511C272.112 63.6307 272.97 62.4205 273.527 60.9205C274.084 59.4205 274.362 57.7955 274.362 56.0455C274.362 54.2955 274.084 52.6648 273.527 51.1534C272.97 49.642 272.112 48.4205 270.953 47.4886C269.794 46.5568 268.317 46.0909 266.521 46.0909C264.726 46.0909 263.249 46.5568 262.089 47.4886C260.93 48.4205 260.072 49.642 259.516 51.1534C258.959 52.6648 258.68 54.2955 258.68 56.0455C258.68 57.7955 258.959 59.4205 259.516 60.9205C260.072 62.4205 260.93 63.6307 262.089 64.5511C263.249 65.4716 264.726 65.9318 266.521 65.9318ZM295.912 42.8182V46.2273H282.344V42.8182H295.912ZM286.298 36.5455H290.321V61.5C290.321 62.6364 290.486 63.4886 290.815 64.0568C291.156 64.6136 291.588 64.9886 292.111 65.1818C292.645 65.3636 293.207 65.4545 293.798 65.4545C294.241 65.4545 294.605 65.4318 294.889 65.3864C295.173 65.3295 295.401 65.2841 295.571 65.25L296.389 68.8636C296.116 68.9659 295.736 69.0682 295.247 69.1705C294.759 69.2841 294.139 69.3409 293.389 69.3409C292.253 69.3409 291.139 69.0966 290.048 68.608C288.969 68.1193 288.071 67.375 287.355 66.375C286.651 65.375 286.298 64.1136 286.298 62.5909V36.5455ZM316.009 69V34.0909H327.804C330.543 34.0909 332.781 34.5852 334.52 35.5739C336.27 36.5511 337.565 37.875 338.406 39.5455C339.247 41.2159 339.668 43.0795 339.668 45.1364C339.668 47.1932 339.247 49.0625 338.406 50.7443C337.577 52.4261 336.293 53.767 334.554 54.767C332.815 55.7557 330.588 56.25 327.872 56.25H319.418V52.5H327.736C329.611 52.5 331.116 52.1761 332.253 51.5284C333.389 50.8807 334.213 50.0057 334.724 48.9034C335.247 47.7898 335.509 46.5341 335.509 45.1364C335.509 43.7386 335.247 42.4886 334.724 41.3864C334.213 40.2841 333.384 39.4205 332.236 38.7955C331.088 38.1591 329.565 37.8409 327.668 37.8409H320.236V69H316.009ZM353.636 69.6136C351.977 69.6136 350.472 69.3011 349.119 68.6761C347.767 68.0398 346.693 67.125 345.898 65.9318C345.102 64.7273 344.705 63.2727 344.705 61.5682C344.705 60.0682 345 58.8523 345.591 57.9205C346.182 56.9773 346.972 56.2386 347.96 55.7045C348.949 55.1705 350.04 54.7727 351.233 54.5114C352.438 54.2386 353.648 54.0227 354.864 53.8636C356.455 53.6591 357.744 53.5057 358.733 53.4034C359.733 53.2898 360.46 53.1023 360.915 52.8409C361.381 52.5795 361.614 52.125 361.614 51.4773V51.3409C361.614 49.6591 361.153 48.3523 360.233 47.4205C359.324 46.4886 357.943 46.0227 356.091 46.0227C354.17 46.0227 352.665 46.4432 351.574 47.2841C350.483 48.125 349.716 49.0227 349.273 49.9773L345.455 48.6136C346.136 47.0227 347.045 45.7841 348.182 44.8977C349.33 44 350.58 43.375 351.932 43.0227C353.295 42.6591 354.636 42.4773 355.955 42.4773C356.795 42.4773 357.761 42.5795 358.852 42.7841C359.955 42.9773 361.017 43.3807 362.04 43.9943C363.074 44.608 363.932 45.5341 364.614 46.7727C365.295 48.0114 365.636 49.6705 365.636 51.75V69H361.614V65.4545H361.409C361.136 66.0227 360.682 66.6307 360.045 67.2784C359.409 67.9261 358.563 68.4773 357.506 68.9318C356.449 69.3864 355.159 69.6136 353.636 69.6136ZM354.25 66C355.841 66 357.182 65.6875 358.273 65.0625C359.375 64.4375 360.205 63.6307 360.761 62.642C361.33 61.6534 361.614 60.6136 361.614 59.5227V55.8409C361.443 56.0455 361.068 56.233 360.489 56.4034C359.92 56.5625 359.261 56.7045 358.511 56.8295C357.773 56.9432 357.051 57.0455 356.347 57.1364C355.653 57.2159 355.091 57.2841 354.659 57.3409C353.614 57.4773 352.636 57.6989 351.727 58.0057C350.83 58.3011 350.102 58.75 349.545 59.3523C349 59.9432 348.727 60.75 348.727 61.7727C348.727 63.1705 349.244 64.2273 350.278 64.9432C351.324 65.6477 352.648 66 354.25 66ZM391.524 48.6818L387.911 49.7045C387.683 49.1023 387.348 48.517 386.905 47.9489C386.473 47.3693 385.882 46.892 385.132 46.517C384.382 46.142 383.422 45.9545 382.251 45.9545C380.649 45.9545 379.314 46.3239 378.246 47.0625C377.189 47.7898 376.661 48.7159 376.661 49.8409C376.661 50.8409 377.024 51.6307 377.751 52.2102C378.479 52.7898 379.615 53.2727 381.161 53.6591L385.047 54.6136C387.388 55.1818 389.132 56.0511 390.28 57.2216C391.428 58.3807 392.001 59.875 392.001 61.7045C392.001 63.2045 391.57 64.5455 390.706 65.7273C389.854 66.9091 388.661 67.8409 387.126 68.5227C385.592 69.2045 383.808 69.5455 381.774 69.5455C379.104 69.5455 376.893 68.9659 375.143 67.8068C373.393 66.6477 372.286 64.9545 371.82 62.7273L375.638 61.7727C376.001 63.1818 376.689 64.2386 377.7 64.9432C378.723 65.6477 380.058 66 381.706 66C383.581 66 385.07 65.6023 386.172 64.8068C387.286 64 387.842 63.0341 387.842 61.9091C387.842 61 387.524 60.2386 386.888 59.625C386.251 59 385.274 58.5341 383.956 58.2273L379.592 57.2045C377.195 56.6364 375.433 55.7557 374.308 54.5625C373.195 53.358 372.638 51.8523 372.638 50.0455C372.638 48.5682 373.053 47.2614 373.882 46.125C374.723 44.9886 375.865 44.0966 377.308 43.4489C378.763 42.8011 380.411 42.4773 382.251 42.4773C384.842 42.4773 386.876 43.0455 388.354 44.1818C389.842 45.3182 390.899 46.8182 391.524 48.6818ZM416.602 48.6818L412.989 49.7045C412.761 49.1023 412.426 48.517 411.983 47.9489C411.551 47.3693 410.96 46.892 410.21 46.517C409.46 46.142 408.5 45.9545 407.33 45.9545C405.727 45.9545 404.392 46.3239 403.324 47.0625C402.267 47.7898 401.739 48.7159 401.739 49.8409C401.739 50.8409 402.102 51.6307 402.83 52.2102C403.557 52.7898 404.693 53.2727 406.239 53.6591L410.125 54.6136C412.466 55.1818 414.21 56.0511 415.358 57.2216C416.506 58.3807 417.08 59.875 417.08 61.7045C417.08 63.2045 416.648 64.5455 415.784 65.7273C414.932 66.9091 413.739 67.8409 412.205 68.5227C410.67 69.2045 408.886 69.5455 406.852 69.5455C404.182 69.5455 401.972 68.9659 400.222 67.8068C398.472 66.6477 397.364 64.9545 396.898 62.7273L400.716 61.7727C401.08 63.1818 401.767 64.2386 402.778 64.9432C403.801 65.6477 405.136 66 406.784 66C408.659 66 410.148 65.6023 411.25 64.8068C412.364 64 412.92 63.0341 412.92 61.9091C412.92 61 412.602 60.2386 411.966 59.625C411.33 59 410.352 58.5341 409.034 58.2273L404.67 57.2045C402.273 56.6364 400.511 55.7557 399.386 54.5625C398.273 53.358 397.716 51.8523 397.716 50.0455C397.716 48.5682 398.131 47.2614 398.96 46.125C399.801 44.9886 400.943 44.0966 402.386 43.4489C403.841 42.8011 405.489 42.4773 407.33 42.4773C409.92 42.4773 411.955 43.0455 413.432 44.1818C414.92 45.3182 415.977 46.8182 416.602 48.6818ZM429.067 69L421.089 42.8182H425.317L430.976 62.8636H431.249L436.839 42.8182H441.135L446.658 62.7955H446.93L452.589 42.8182H456.817L448.839 69H444.885L439.158 48.8864H438.749L433.021 69H429.067ZM471.881 69.5455C469.517 69.5455 467.443 68.983 465.659 67.858C463.886 66.733 462.5 65.1591 461.5 63.1364C460.511 61.1136 460.017 58.75 460.017 56.0455C460.017 53.3182 460.511 50.9375 461.5 48.9034C462.5 46.8693 463.886 45.2898 465.659 44.1648C467.443 43.0398 469.517 42.4773 471.881 42.4773C474.244 42.4773 476.313 43.0398 478.085 44.1648C479.869 45.2898 481.256 46.8693 482.244 48.9034C483.244 50.9375 483.744 53.3182 483.744 56.0455C483.744 58.75 483.244 61.1136 482.244 63.1364C481.256 65.1591 479.869 66.733 478.085 67.858C476.313 68.983 474.244 69.5455 471.881 69.5455ZM471.881 65.9318C473.676 65.9318 475.153 65.4716 476.312 64.5511C477.472 63.6307 478.33 62.4205 478.886 60.9205C479.443 59.4205 479.722 57.7955 479.722 56.0455C479.722 54.2955 479.443 52.6648 478.886 51.1534C478.33 49.642 477.472 48.4205 476.312 47.4886C475.153 46.5568 473.676 46.0909 471.881 46.0909C470.085 46.0909 468.608 46.5568 467.449 47.4886C466.29 48.4205 465.432 49.642 464.875 51.1534C464.318 52.6648 464.04 54.2955 464.04 56.0455C464.04 57.7955 464.318 59.4205 464.875 60.9205C465.432 62.4205 466.29 63.6307 467.449 64.5511C468.608 65.4716 470.085 65.9318 471.881 65.9318ZM489.885 69V42.8182H493.771V46.7727H494.044C494.521 45.4773 495.385 44.4261 496.635 43.6193C497.885 42.8125 499.294 42.4091 500.862 42.4091C501.158 42.4091 501.527 42.4148 501.97 42.4261C502.413 42.4375 502.749 42.4545 502.976 42.4773V46.5682C502.839 46.5341 502.527 46.483 502.038 46.4148C501.561 46.3352 501.055 46.2955 500.521 46.2955C499.249 46.2955 498.112 46.5625 497.112 47.0966C496.124 47.6193 495.339 48.3466 494.76 49.2784C494.192 50.1989 493.908 51.25 493.908 52.4318V69H489.885ZM516.834 69.5455C514.652 69.5455 512.726 68.9943 511.055 67.892C509.385 66.7784 508.078 65.2102 507.135 63.1875C506.192 61.1534 505.72 58.75 505.72 55.9773C505.72 53.2273 506.192 50.8409 507.135 48.8182C508.078 46.7955 509.391 45.233 511.072 44.1307C512.754 43.0284 514.697 42.4773 516.902 42.4773C518.607 42.4773 519.953 42.7614 520.942 43.3295C521.942 43.8864 522.703 44.5227 523.226 45.2386C523.76 45.9432 524.175 46.5227 524.47 46.9773H524.811V34.0909H528.834V69H524.947V64.9773H524.47C524.175 65.4545 523.754 66.0568 523.209 66.7841C522.663 67.5 521.885 68.142 520.874 68.7102C519.862 69.267 518.516 69.5455 516.834 69.5455ZM517.379 65.9318C518.993 65.9318 520.357 65.5114 521.47 64.6705C522.584 63.8182 523.43 62.642 524.01 61.142C524.589 59.6307 524.879 57.8864 524.879 55.9091C524.879 53.9545 524.595 52.2443 524.027 50.7784C523.459 49.3011 522.618 48.1534 521.504 47.3352C520.391 46.5057 519.016 46.0909 517.379 46.0909C515.675 46.0909 514.254 46.5284 513.118 47.4034C511.993 48.267 511.146 49.4432 510.578 50.9318C510.021 52.4091 509.743 54.0682 509.743 55.9091C509.743 57.7727 510.027 59.4659 510.595 60.9886C511.175 62.5 512.027 63.7045 513.152 64.6023C514.288 65.4886 515.697 65.9318 517.379 65.9318Z" fill="#2B2B2B"/>
<path fill-rule="evenodd" clip-rule="evenodd" d="M99.5774 59.5305L95.6316 59.0158C95.8882 57.0486 96.0208 55.0408 96.0208 53C96.0208 50.9592 95.8882 48.9514 95.6316 46.9842L99.5774 46.4695C99.8562 48.6069 100 50.7866 100 53C100 55.2134 99.8562 57.3931 99.5774 59.5305ZM96.206 33.8606L92.5303 35.3849C90.9797 31.6457 88.9493 28.1535 86.5148 24.9855L89.67 22.5608C92.3139 26.0014 94.5203 29.7957 96.206 33.8606ZM80.4392 13.33L78.0145 16.4852C74.8465 14.0507 71.3543 12.0203 67.6151 10.4698L69.1394 6.79403C73.2043 8.47966 76.9986 10.6861 80.4392 13.33ZM56.5305 3.42261L56.0158 7.36842C54.0486 7.11183 52.0408 6.97924 50 6.97924C47.9592 6.97924 45.9514 7.11183 43.9842 7.36842L43.4695 3.42261C45.6069 3.14382 47.7866 3 50 3C52.2134 3 54.3931 3.14382 56.5305 3.42261ZM30.8606 6.79403L32.3849 10.4698C28.6457 12.0203 25.1535 14.0507 21.9855 16.4852L19.5608 13.33C23.0014 10.6861 26.7957 8.47966 30.8606 6.79403ZM10.33 22.5608C7.68607 26.0014 5.47966 29.7957 3.79402 33.8606L7.46975 35.3849C9.02034 31.6457 11.0507 28.1535 13.4852 24.9855L10.33 22.5608ZM0.422613 46.4695C0.143816 48.6069 0 50.7866 0 53C0 55.2134 0.143816 57.3931 0.422614 59.5305L4.36842 59.0158C4.11183 57.0486 3.97924 55.0408 3.97924 53C3.97924 50.9592 4.11183 48.9514 4.36842 46.9842L0.422613 46.4695ZM3.79403 72.1394L7.46975 70.6151C9.02034 74.3543 11.0507 77.8465 13.4852 81.0145L10.33 83.4392C7.68607 79.9986 5.47966 76.2043 3.79403 72.1394ZM19.5608 92.67L21.9855 89.5148C25.1535 91.9493 28.6457 93.9797 32.3849 95.5303L30.8606 99.206C26.7957 97.5203 23.0014 95.3139 19.5608 92.67ZM43.4695 102.577L43.9842 98.6316C45.9514 98.8882 47.9592 99.0208 50 99.0208C52.0408 99.0208 54.0486 98.8882 56.0158 98.6316L56.5305 102.577C54.3931 102.856 52.2134 103 50 103C47.7866 103 45.6069 102.856 43.4695 102.577ZM69.1394 99.206L67.6151 95.5303C71.3543 93.9797 74.8465 91.9493 78.0145 89.5148L80.4392 92.67C76.9986 95.3139 73.2043 97.5203 69.1394 99.206ZM89.67 83.4392L86.5148 81.0145C88.9493 77.8465 90.9797 74.3543 92.5303 70.6151L96.206 72.1394C94.5203 76.2043 92.3139 79.9986 89.67 83.4392Z" fill="#2B2B2B"/>
</svg>
