<svg width="541" height="103" viewBox="0 0 541 103" fill="none" xmlns="http://www.w3.org/2000/svg">
<path d="M155.227 69V34.0909H159.455V65.25H175.682V69H155.227ZM192.318 69.5455C189.955 69.5455 187.881 68.983 186.097 67.858C184.324 66.733 182.938 65.1591 181.938 63.1364C180.949 61.1136 180.455 58.75 180.455 56.0455C180.455 53.3182 180.949 50.9375 181.938 48.9034C182.938 46.8693 184.324 45.2898 186.097 44.1648C187.881 43.0398 189.955 42.4773 192.318 42.4773C194.682 42.4773 196.75 43.0398 198.523 44.1648C200.307 45.2898 201.693 46.8693 202.682 48.9034C203.682 50.9375 204.182 53.3182 204.182 56.0455C204.182 58.75 203.682 61.1136 202.682 63.1364C201.693 65.1591 200.307 66.733 198.523 67.858C196.75 68.983 194.682 69.5455 192.318 69.5455ZM192.318 65.9318C194.114 65.9318 195.591 65.4716 196.75 64.5511C197.909 63.6307 198.767 62.4205 199.324 60.9205C199.881 59.4205 200.159 57.7955 200.159 56.0455C200.159 54.2955 199.881 52.6648 199.324 51.1534C198.767 49.642 197.909 48.4205 196.75 47.4886C195.591 46.5568 194.114 46.0909 192.318 46.0909C190.523 46.0909 189.045 46.5568 187.886 47.4886C186.727 48.4205 185.869 49.642 185.312 51.1534C184.756 52.6648 184.477 54.2955 184.477 56.0455C184.477 57.7955 184.756 59.4205 185.312 60.9205C185.869 62.4205 186.727 63.6307 187.886 64.5511C189.045 65.4716 190.523 65.9318 192.318 65.9318ZM220.891 79.3636C218.947 79.3636 217.277 79.1136 215.879 78.6136C214.482 78.125 213.317 77.4773 212.385 76.6705C211.464 75.875 210.732 75.0227 210.186 74.1136L213.391 71.8636C213.754 72.3409 214.214 72.8864 214.771 73.5C215.328 74.125 216.089 74.6648 217.055 75.1193C218.033 75.5852 219.311 75.8182 220.891 75.8182C223.004 75.8182 224.749 75.3068 226.124 74.2841C227.499 73.2614 228.186 71.6591 228.186 69.4773V64.1591H227.845C227.55 64.6364 227.129 65.2273 226.584 65.9318C226.05 66.625 225.277 67.2443 224.266 67.7898C223.266 68.3239 221.913 68.5909 220.209 68.5909C218.095 68.5909 216.197 68.0909 214.516 67.0909C212.845 66.0909 211.521 64.6364 210.544 62.7273C209.578 60.8182 209.095 58.5 209.095 55.7727C209.095 53.0909 209.567 50.7557 210.51 48.767C211.453 46.767 212.766 45.2216 214.447 44.1307C216.129 43.0284 218.072 42.4773 220.277 42.4773C221.982 42.4773 223.334 42.7614 224.334 43.3295C225.345 43.8864 226.118 44.5227 226.652 45.2386C227.197 45.9432 227.618 46.5227 227.913 46.9773H228.322V42.8182H232.209V69.75C232.209 72 231.697 73.8295 230.675 75.2386C229.663 76.6591 228.3 77.6989 226.584 78.358C224.879 79.0284 222.982 79.3636 220.891 79.3636ZM220.754 64.9773C222.368 64.9773 223.732 64.608 224.845 63.8693C225.959 63.1307 226.805 62.0682 227.385 60.6818C227.964 59.2955 228.254 57.6364 228.254 55.7045C228.254 53.8182 227.97 52.1534 227.402 50.7102C226.834 49.267 225.993 48.1364 224.879 47.3182C223.766 46.5 222.391 46.0909 220.754 46.0909C219.05 46.0909 217.629 46.5227 216.493 47.3864C215.368 48.25 214.521 49.4091 213.953 50.8636C213.396 52.3182 213.118 53.9318 213.118 55.7045C213.118 57.5227 213.402 59.1307 213.97 60.5284C214.55 61.9148 215.402 63.0057 216.527 63.8011C217.663 64.5852 219.072 64.9773 220.754 64.9773ZM263.709 69.5455C261.345 69.5455 259.271 68.983 257.487 67.858C255.714 66.733 254.328 65.1591 253.328 63.1364C252.339 61.1136 251.845 58.75 251.845 56.0455C251.845 53.3182 252.339 50.9375 253.328 48.9034C254.328 46.8693 255.714 45.2898 257.487 44.1648C259.271 43.0398 261.345 42.4773 263.709 42.4773C266.072 42.4773 268.141 43.0398 269.913 44.1648C271.697 45.2898 273.084 46.8693 274.072 48.9034C275.072 50.9375 275.572 53.3182 275.572 56.0455C275.572 58.75 275.072 61.1136 274.072 63.1364C273.084 65.1591 271.697 66.733 269.913 67.858C268.141 68.983 266.072 69.5455 263.709 69.5455ZM263.709 65.9318C265.504 65.9318 266.982 65.4716 268.141 64.5511C269.3 63.6307 270.158 62.4205 270.714 60.9205C271.271 59.4205 271.55 57.7955 271.55 56.0455C271.55 54.2955 271.271 52.6648 270.714 51.1534C270.158 49.642 269.3 48.4205 268.141 47.4886C266.982 46.5568 265.504 46.0909 263.709 46.0909C261.913 46.0909 260.436 46.5568 259.277 47.4886C258.118 48.4205 257.26 49.642 256.703 51.1534C256.146 52.6648 255.868 54.2955 255.868 56.0455C255.868 57.7955 256.146 59.4205 256.703 60.9205C257.26 62.4205 258.118 63.6307 259.277 64.5511C260.436 65.4716 261.913 65.9318 263.709 65.9318ZM298.213 58.2955V42.8182H302.236V69H298.213V64.5682H297.94C297.327 65.8977 296.372 67.0284 295.077 67.9602C293.781 68.8807 292.145 69.3409 290.168 69.3409C288.531 69.3409 287.077 68.983 285.804 68.267C284.531 67.5398 283.531 66.4489 282.804 64.9943C282.077 63.5284 281.713 61.6818 281.713 59.4545V42.8182H285.736V59.1818C285.736 61.0909 286.27 62.6136 287.338 63.75C288.418 64.8864 289.793 65.4545 291.463 65.4545C292.463 65.4545 293.48 65.1989 294.514 64.6875C295.56 64.1761 296.435 63.392 297.139 62.3352C297.855 61.2784 298.213 59.9318 298.213 58.2955ZM320.99 42.8182V46.2273H307.422V42.8182H320.99ZM311.376 36.5455H315.399V61.5C315.399 62.6364 315.564 63.4886 315.893 64.0568C316.234 64.6136 316.666 64.9886 317.189 65.1818C317.723 65.3636 318.286 65.4545 318.876 65.4545C319.32 65.4545 319.683 65.4318 319.967 65.3864C320.251 65.3295 320.479 65.2841 320.649 65.25L321.467 68.8636C321.195 68.9659 320.814 69.0682 320.325 69.1705C319.837 69.2841 319.217 69.3409 318.467 69.3409C317.331 69.3409 316.217 69.0966 315.126 68.608C314.047 68.1193 313.149 67.375 312.433 66.375C311.729 65.375 311.376 64.1136 311.376 62.5909V36.5455Z" fill="#2B2B2B"/>
<path fill-rule="evenodd" clip-rule="evenodd" d="M99.5774 59.5305L95.6316 59.0158C95.8882 57.0486 96.0208 55.0408 96.0208 53C96.0208 50.9592 95.8882 48.9514 95.6316 46.9842L99.5774 46.4695C99.8562 48.6069 100 50.7866 100 53C100 55.2134 99.8562 57.3931 99.5774 59.5305ZM96.206 33.8606L92.5303 35.3849C90.9797 31.6457 88.9493 28.1535 86.5148 24.9855L89.67 22.5608C92.3139 26.0014 94.5203 29.7957 96.206 33.8606ZM80.4392 13.33L78.0145 16.4852C74.8465 14.0507 71.3543 12.0203 67.6151 10.4698L69.1394 6.79403C73.2043 8.47966 76.9986 10.6861 80.4392 13.33ZM56.5305 3.42261L56.0158 7.36842C54.0486 7.11183 52.0408 6.97924 50 6.97924C47.9592 6.97924 45.9514 7.11183 43.9842 7.36842L43.4695 3.42261C45.6069 3.14382 47.7866 3 50 3C52.2134 3 54.3931 3.14382 56.5305 3.42261ZM30.8606 6.79403L32.3849 10.4698C28.6457 12.0203 25.1535 14.0507 21.9855 16.4852L19.5608 13.33C23.0014 10.6861 26.7957 8.47966 30.8606 6.79403ZM10.33 22.5608C7.68607 26.0014 5.47966 29.7957 3.79402 33.8606L7.46975 35.3849C9.02034 31.6457 11.0507 28.1535 13.4852 24.9855L10.33 22.5608ZM0.422613 46.4695C0.143816 48.6069 0 50.7866 0 53C0 55.2134 0.143816 57.3931 0.422614 59.5305L4.36842 59.0158C4.11183 57.0486 3.97924 55.0408 3.97924 53C3.97924 50.9592 4.11183 48.9514 4.36842 46.9842L0.422613 46.4695ZM3.79403 72.1394L7.46975 70.6151C9.02034 74.3543 11.0507 77.8465 13.4852 81.0145L10.33 83.4392C7.68607 79.9986 5.47966 76.2043 3.79403 72.1394ZM19.5608 92.67L21.9855 89.5148C25.1535 91.9493 28.6457 93.9797 32.3849 95.5303L30.8606 99.206C26.7957 97.5203 23.0014 95.3139 19.5608 92.67ZM43.4695 102.577L43.9842 98.6316C45.9514 98.8882 47.9592 99.0208 50 99.0208C52.0408 99.0208 54.0486 98.8882 56.0158 98.6316L56.5305 102.577C54.3931 102.856 52.2134 103 50 103C47.7866 103 45.6069 102.856 43.4695 102.577ZM69.1394 99.206L67.6151 95.5303C71.3543 93.9797 74.8465 91.9493 78.0145 89.5148L80.4392 92.67C76.9986 95.3139 73.2043 97.5203 69.1394 99.206ZM89.67 83.4392L86.5148 81.0145C88.9493 77.8465 90.9797 74.3543 92.5303 70.6151L96.206 72.1394C94.5203 76.2043 92.3139 79.9986 89.67 83.4392Z" fill="#2B2B2B"/>
</svg>
