<svg width="347" height="80" viewBox="0 0 347 80" fill="none" xmlns="http://www.w3.org/2000/svg">
<path fill-rule="evenodd" clip-rule="evenodd" d="M79.6619 45.2244L76.5053 44.8126C76.7105 43.2389 76.8166 41.6326 76.8166 40C76.8166 38.3674 76.7105 36.7611 76.5053 35.1874L79.6619 34.7756C79.8849 36.4855 80 38.2293 80 40C80 41.7707 79.8849 43.5145 79.6619 45.2244ZM76.9648 24.6885L74.0242 25.9079C72.7837 22.9165 71.1594 20.1228 69.2118 17.5884L71.736 15.6486C73.8511 18.4011 75.6163 21.4366 76.9648 24.6885ZM64.3514 8.26402L62.4116 10.7882C59.8772 8.84059 57.0835 7.21627 54.0921 5.9758L55.3115 3.03522C58.5634 4.38373 61.5989 6.14886 64.3514 8.26402ZM45.2244 0.338091L44.8126 3.49474C43.2389 3.28946 41.6326 3.18339 40 3.18339C38.3674 3.18339 36.7611 3.28946 35.1874 3.49474L34.7756 0.338092C36.4855 0.115053 38.2293 0 40 0C41.7707 0 43.5145 0.115053 45.2244 0.338091ZM24.6885 3.03522L25.9079 5.9758C22.9165 7.21627 20.1228 8.8406 17.5884 10.7882L15.6486 8.26402C18.4011 6.14886 21.4366 4.38373 24.6885 3.03522ZM8.26402 15.6486L10.7882 17.5884C8.84059 20.1228 7.21627 22.9165 5.9758 25.9079L3.03522 24.6885C4.38373 21.4366 6.14886 18.4011 8.26402 15.6486ZM0.338091 34.7756C0.115053 36.4855 0 38.2293 0 40C0 41.7707 0.115053 43.5145 0.338091 45.2244L3.49474 44.8126C3.28946 43.2389 3.18339 41.6326 3.18339 40C3.18339 38.3674 3.28946 36.7611 3.49474 35.1874L0.338091 34.7756ZM3.03522 55.3115L5.9758 54.0921C7.21627 57.0835 8.8406 59.8772 10.7882 62.4116L8.26402 64.3514C6.14886 61.5989 4.38373 58.5634 3.03522 55.3115ZM15.6486 71.736L17.5884 69.2118C20.1228 71.1594 22.9165 72.7837 25.9079 74.0242L24.6885 76.9648C21.4366 75.6163 18.4011 73.8511 15.6486 71.736ZM34.7756 79.6619L35.1874 76.5053C36.7611 76.7105 38.3674 76.8166 40 76.8166C41.6326 76.8166 43.2389 76.7105 44.8126 76.5053L45.2244 79.6619C43.5145 79.8849 41.7707 80 40 80C38.2293 80 36.4855 79.8849 34.7756 79.6619ZM55.3115 76.9648L54.0921 74.0242C57.0835 72.7837 59.8772 71.1594 62.4116 69.2118L64.3514 71.736C61.5989 73.8511 58.5634 75.6163 55.3115 76.9648ZM71.736 64.3514L69.2118 62.4116C71.1594 59.8772 72.7837 57.0835 74.0242 54.0921L76.9648 55.3115C75.6163 58.5634 73.8511 61.5989 71.736 64.3514Z" fill="#2B2B2B"/>
<path d="M120.86 57.5999V20.2199H124.16L133.4 38.5199L142.82 20.1599H146V57.5999H142.04V29.3999L133.94 44.4599H132.32L124.76 29.5799V57.5999H120.86Z" fill="#2B2B2B"/>
<path d="M162.68 58.2599C161.72 58.2599 160.9 57.9199 160.22 57.2399C159.54 56.5599 159.2 55.7599 159.2 54.8399C159.2 53.9199 159.54 53.1199 160.22 52.4399C160.9 51.7599 161.72 51.4199 162.68 51.4199C163.6 51.4199 164.4 51.7599 165.08 52.4399C165.76 53.1199 166.1 53.9199 166.1 54.8399C166.1 55.7599 165.76 56.5599 165.08 57.2399C164.4 57.9199 163.6 58.2599 162.68 58.2599Z" fill="#2B2B2B"/>
<path d="M199.82 46.6799H186.26L187.1 43.4399H198.86L199.82 46.6799ZM193.34 29.1599L183.5 57.5999H179.36L193.16 19.5599H193.64L207.44 57.5999H203.12L193.34 29.1599Z" fill="#2B2B2B"/>
<path d="M222.68 58.2599C221.72 58.2599 220.9 57.9199 220.22 57.2399C219.54 56.5599 219.2 55.7599 219.2 54.8399C219.2 53.9199 219.54 53.1199 220.22 52.4399C220.9 51.7599 221.72 51.4199 222.68 51.4199C223.6 51.4199 224.4 51.7599 225.08 52.4399C225.76 53.1199 226.1 53.9199 226.1 54.8399C226.1 55.7599 225.76 56.5599 225.08 57.2399C224.4 57.9199 223.6 58.2599 222.68 58.2599Z" fill="#2B2B2B"/>
<path d="M241.94 57.5999V20.2199H253.94C256.74 20.2199 259 20.6999 260.72 21.6599C262.44 22.6199 263.7 23.8999 264.5 25.4999C265.34 27.0599 265.76 28.8199 265.76 30.7799C265.76 32.2199 265.54 33.5599 265.1 34.7999C264.66 36.0399 263.96 37.1399 263 38.0999C262.08 39.0599 260.9 39.7999 259.46 40.3199C258.02 40.8399 256.28 41.0999 254.24 41.0999H246.26V57.5999H241.94ZM246.26 37.3799H253.76C255.6 37.3799 257.08 37.1199 258.2 36.5999C259.32 36.0399 260.14 35.2799 260.66 34.3199C261.18 33.3199 261.44 32.1799 261.44 30.8999C261.44 29.6599 261.18 28.5399 260.66 27.5399C260.14 26.5399 259.32 25.7399 258.2 25.1399C257.08 24.4999 255.62 24.1799 253.82 24.1799H246.26V37.3799Z" fill="#2B2B2B"/>
<path d="M282.68 58.2599C281.72 58.2599 280.9 57.9199 280.22 57.2399C279.54 56.5599 279.2 55.7599 279.2 54.8399C279.2 53.9199 279.54 53.1199 280.22 52.4399C280.9 51.7599 281.72 51.4199 282.68 51.4199C283.6 51.4199 284.4 51.7599 285.08 52.4399C285.76 53.1199 286.1 53.9199 286.1 54.8399C286.1 55.7599 285.76 56.5599 285.08 57.2399C284.4 57.9199 283.6 58.2599 282.68 58.2599Z" fill="#2B2B2B"/>
<path d="M313.22 58.1999C310.78 58.1999 308.58 57.7999 306.62 56.9999C304.7 56.1999 303 55.0199 301.52 53.4599L303.68 49.6799L303.92 49.1399L304.34 49.3799C304.42 49.6599 304.52 49.9799 304.64 50.3399C304.76 50.6599 305.04 51.0599 305.48 51.5399C306.52 52.4199 307.72 53.1199 309.08 53.6399C310.48 54.1599 312.06 54.4199 313.82 54.4199C314.94 54.4199 315.96 54.2599 316.88 53.9399C317.84 53.5799 318.66 53.1199 319.34 52.5599C320.06 51.9599 320.6 51.2799 320.96 50.5199C321.36 49.7199 321.56 48.8799 321.56 47.9999C321.56 47.3199 321.48 46.6999 321.32 46.1399C321.2 45.5799 320.94 45.0799 320.54 44.6399C320.18 44.1599 319.68 43.6999 319.04 43.2599C318.4 42.7799 317.58 42.2799 316.58 41.7599C315.58 41.2399 314.38 40.6799 312.98 40.0799C310.38 39.0799 308.32 37.9999 306.8 36.8399C305.32 35.6399 304.26 34.3799 303.62 33.0599C303.02 31.7399 302.72 30.3799 302.72 28.9799C302.72 27.1399 303.18 25.5399 304.1 24.1799C305.02 22.7799 306.32 21.6999 308 20.9399C309.72 20.1399 311.76 19.7399 314.12 19.7399C315.48 19.7399 316.78 19.9399 318.02 20.3399C319.3 20.6999 320.48 21.2199 321.56 21.8999C322.68 22.5799 323.66 23.4199 324.5 24.4199L322.16 27.5399L321.8 28.0199L321.44 27.7799C321.4 27.4599 321.32 27.1399 321.2 26.8199C321.08 26.4999 320.8 26.0999 320.36 25.6199C319.4 24.6999 318.38 24.0799 317.3 23.7599C316.22 23.3999 314.94 23.2199 313.46 23.2199C312.46 23.2199 311.56 23.3599 310.76 23.6399C310 23.9199 309.34 24.3199 308.78 24.8399C308.22 25.3599 307.78 25.9599 307.46 26.6399C307.18 27.2799 307.04 27.9599 307.04 28.6799C307.04 29.3599 307.12 29.9799 307.28 30.5399C307.44 31.0999 307.72 31.6399 308.12 32.1599C308.52 32.6799 309.06 33.1999 309.74 33.7199C310.46 34.2399 311.34 34.7599 312.38 35.2799C313.46 35.7999 314.76 36.3599 316.28 36.9599C318.12 37.7199 319.64 38.4799 320.84 39.2399C322.08 39.9599 323.04 40.7399 323.72 41.5799C324.44 42.3799 324.94 43.2599 325.22 44.2199C325.54 45.1799 325.7 46.2399 325.7 47.3999C325.7 49.1199 325.26 50.8199 324.38 52.4999C323.54 54.1399 322.2 55.4999 320.36 56.5799C318.52 57.6599 316.14 58.1999 313.22 58.1999Z" fill="#2B2B2B"/>
<path d="M342.68 58.2599C341.72 58.2599 340.9 57.9199 340.22 57.2399C339.54 56.5599 339.2 55.7599 339.2 54.8399C339.2 53.9199 339.54 53.1199 340.22 52.4399C340.9 51.7599 341.72 51.4199 342.68 51.4199C343.6 51.4199 344.4 51.7599 345.08 52.4399C345.76 53.1199 346.1 53.9199 346.1 54.8399C346.1 55.7599 345.76 56.5599 345.08 57.2399C344.4 57.9199 343.6 58.2599 342.68 58.2599Z" fill="#2B2B2B"/>
</svg>
