<svg width="525" height="103" viewBox="0 0 525 103" fill="none" xmlns="http://www.w3.org/2000/svg">
<path d="M155.227 69V34.0909H167.023C169.75 34.0909 171.989 34.5568 173.739 35.4886C175.489 36.4091 176.784 37.6761 177.625 39.2898C178.466 40.9034 178.886 42.7386 178.886 44.7955C178.886 46.8523 178.466 48.6761 177.625 50.267C176.784 51.858 175.494 53.108 173.756 54.017C172.017 54.9148 169.795 55.3636 167.091 55.3636H157.545V51.5455H166.955C168.818 51.5455 170.318 51.2727 171.455 50.7273C172.602 50.1818 173.432 49.4091 173.943 48.4091C174.466 47.3977 174.727 46.1932 174.727 44.7955C174.727 43.3977 174.466 42.1761 173.943 41.1307C173.42 40.0852 172.585 39.2784 171.438 38.7102C170.29 38.1307 168.773 37.8409 166.886 37.8409H159.455V69H155.227ZM171.659 53.3182L180.25 69H175.341L166.886 53.3182H171.659ZM196.081 69.5455C193.558 69.5455 191.382 68.9886 189.553 67.875C187.734 66.75 186.331 65.1818 185.342 63.1705C184.365 61.1477 183.876 58.7955 183.876 56.1136C183.876 53.4318 184.365 51.0682 185.342 49.0227C186.331 46.9659 187.706 45.3636 189.467 44.2159C191.24 43.0568 193.308 42.4773 195.672 42.4773C197.036 42.4773 198.382 42.7045 199.712 43.1591C201.041 43.6136 202.251 44.3523 203.342 45.375C204.433 46.3864 205.303 47.7273 205.95 49.3977C206.598 51.0682 206.922 53.125 206.922 55.5682V57.2727H186.74V53.7955H202.831C202.831 52.3182 202.536 51 201.945 49.8409C201.365 48.6818 200.536 47.767 199.456 47.0966C198.388 46.4261 197.126 46.0909 195.672 46.0909C194.07 46.0909 192.683 46.4886 191.513 47.2841C190.354 48.0682 189.462 49.0909 188.837 50.3523C188.212 51.6136 187.899 52.9659 187.899 54.4091V56.7273C187.899 58.7045 188.24 60.3807 188.922 61.7557C189.615 63.1193 190.575 64.1591 191.803 64.875C193.03 65.5795 194.456 65.9318 196.081 65.9318C197.138 65.9318 198.092 65.7841 198.945 65.4886C199.808 65.1818 200.553 64.7273 201.178 64.125C201.803 63.5114 202.286 62.75 202.626 61.8409L206.513 62.9318C206.104 64.25 205.416 65.4091 204.45 66.4091C203.484 67.3977 202.291 68.1705 200.871 68.7273C199.45 69.2727 197.854 69.5455 196.081 69.5455ZM231.587 48.6818L227.973 49.7045C227.746 49.1023 227.411 48.517 226.967 47.9489C226.536 47.3693 225.945 46.892 225.195 46.517C224.445 46.142 223.484 45.9545 222.314 45.9545C220.712 45.9545 219.376 46.3239 218.308 47.0625C217.251 47.7898 216.723 48.7159 216.723 49.8409C216.723 50.8409 217.087 51.6307 217.814 52.2102C218.541 52.7898 219.678 53.2727 221.223 53.6591L225.109 54.6136C227.45 55.1818 229.195 56.0511 230.342 57.2216C231.49 58.3807 232.064 59.875 232.064 61.7045C232.064 63.2045 231.632 64.5455 230.768 65.7273C229.916 66.9091 228.723 67.8409 227.189 68.5227C225.655 69.2045 223.871 69.5455 221.837 69.5455C219.166 69.5455 216.956 68.9659 215.206 67.8068C213.456 66.6477 212.348 64.9545 211.882 62.7273L215.7 61.7727C216.064 63.1818 216.751 64.2386 217.763 64.9432C218.786 65.6477 220.121 66 221.768 66C223.643 66 225.132 65.6023 226.234 64.8068C227.348 64 227.905 63.0341 227.905 61.9091C227.905 61 227.587 60.2386 226.95 59.625C226.314 59 225.337 58.5341 224.018 58.2273L219.655 57.2045C217.257 56.6364 215.496 55.7557 214.371 54.5625C213.257 53.358 212.7 51.8523 212.7 50.0455C212.7 48.5682 213.115 47.2614 213.945 46.125C214.786 44.9886 215.928 44.0966 217.371 43.4489C218.825 42.8011 220.473 42.4773 222.314 42.4773C224.905 42.4773 226.939 43.0455 228.416 44.1818C229.905 45.3182 230.962 46.8182 231.587 48.6818ZM249.097 69.5455C246.574 69.5455 244.398 68.9886 242.568 67.875C240.75 66.75 239.347 65.1818 238.358 63.1705C237.381 61.1477 236.892 58.7955 236.892 56.1136C236.892 53.4318 237.381 51.0682 238.358 49.0227C239.347 46.9659 240.722 45.3636 242.483 44.2159C244.256 43.0568 246.324 42.4773 248.688 42.4773C250.051 42.4773 251.398 42.7045 252.727 43.1591C254.057 43.6136 255.267 44.3523 256.358 45.375C257.449 46.3864 258.318 47.7273 258.966 49.3977C259.614 51.0682 259.938 53.125 259.938 55.5682V57.2727H239.756V53.7955H255.847C255.847 52.3182 255.551 51 254.96 49.8409C254.381 48.6818 253.551 47.767 252.472 47.0966C251.403 46.4261 250.142 46.0909 248.688 46.0909C247.085 46.0909 245.699 46.4886 244.528 47.2841C243.369 48.0682 242.477 49.0909 241.852 50.3523C241.227 51.6136 240.915 52.9659 240.915 54.4091V56.7273C240.915 58.7045 241.256 60.3807 241.938 61.7557C242.631 63.1193 243.591 64.1591 244.818 64.875C246.045 65.5795 247.472 65.9318 249.097 65.9318C250.153 65.9318 251.108 65.7841 251.96 65.4886C252.824 65.1818 253.568 64.7273 254.193 64.125C254.818 63.5114 255.301 62.75 255.642 61.8409L259.528 62.9318C259.119 64.25 258.432 65.4091 257.466 66.4091C256.5 67.3977 255.307 68.1705 253.886 68.7273C252.466 69.2727 250.869 69.5455 249.097 69.5455ZM277.443 42.8182V46.2273H263.875V42.8182H277.443ZM267.83 36.5455H271.852V61.5C271.852 62.6364 272.017 63.4886 272.347 64.0568C272.688 64.6136 273.119 64.9886 273.642 65.1818C274.176 65.3636 274.739 65.4545 275.33 65.4545C275.773 65.4545 276.136 65.4318 276.42 65.3864C276.705 65.3295 276.932 65.2841 277.102 65.25L277.92 68.8636C277.648 68.9659 277.267 69.0682 276.778 69.1705C276.29 69.2841 275.67 69.3409 274.92 69.3409C273.784 69.3409 272.67 69.0966 271.58 68.608C270.5 68.1193 269.602 67.375 268.886 66.375C268.182 65.375 267.83 64.1136 267.83 62.5909V36.5455ZM297.54 69V34.0909H309.335C312.074 34.0909 314.313 34.5852 316.051 35.5739C317.801 36.5511 319.097 37.875 319.938 39.5455C320.778 41.2159 321.199 43.0795 321.199 45.1364C321.199 47.1932 320.778 49.0625 319.938 50.7443C319.108 52.4261 317.824 53.767 316.085 54.767C314.347 55.7557 312.119 56.25 309.403 56.25H300.949V52.5H309.267C311.142 52.5 312.648 52.1761 313.784 51.5284C314.92 50.8807 315.744 50.0057 316.256 48.9034C316.778 47.7898 317.04 46.5341 317.04 45.1364C317.04 43.7386 316.778 42.4886 316.256 41.3864C315.744 40.2841 314.915 39.4205 313.767 38.7955C312.619 38.1591 311.097 37.8409 309.199 37.8409H301.767V69H297.54ZM335.168 69.6136C333.509 69.6136 332.003 69.3011 330.651 68.6761C329.298 68.0398 328.224 67.125 327.429 65.9318C326.634 64.7273 326.236 63.2727 326.236 61.5682C326.236 60.0682 326.531 58.8523 327.122 57.9205C327.713 56.9773 328.503 56.2386 329.491 55.7045C330.48 55.1705 331.571 54.7727 332.764 54.5114C333.969 54.2386 335.179 54.0227 336.395 53.8636C337.986 53.6591 339.276 53.5057 340.264 53.4034C341.264 53.2898 341.991 53.1023 342.446 52.8409C342.912 52.5795 343.145 52.125 343.145 51.4773V51.3409C343.145 49.6591 342.685 48.3523 341.764 47.4205C340.855 46.4886 339.474 46.0227 337.622 46.0227C335.702 46.0227 334.196 46.4432 333.105 47.2841C332.014 48.125 331.247 49.0227 330.804 49.9773L326.986 48.6136C327.668 47.0227 328.577 45.7841 329.713 44.8977C330.861 44 332.111 43.375 333.463 43.0227C334.827 42.6591 336.168 42.4773 337.486 42.4773C338.327 42.4773 339.293 42.5795 340.384 42.7841C341.486 42.9773 342.548 43.3807 343.571 43.9943C344.605 44.608 345.463 45.5341 346.145 46.7727C346.827 48.0114 347.168 49.6705 347.168 51.75V69H343.145V65.4545H342.94C342.668 66.0227 342.213 66.6307 341.577 67.2784C340.94 67.9261 340.094 68.4773 339.037 68.9318C337.98 69.3864 336.69 69.6136 335.168 69.6136ZM335.781 66C337.372 66 338.713 65.6875 339.804 65.0625C340.906 64.4375 341.736 63.6307 342.293 62.642C342.861 61.6534 343.145 60.6136 343.145 59.5227V55.8409C342.974 56.0455 342.599 56.233 342.02 56.4034C341.452 56.5625 340.793 56.7045 340.043 56.8295C339.304 56.9432 338.582 57.0455 337.878 57.1364C337.185 57.2159 336.622 57.2841 336.19 57.3409C335.145 57.4773 334.168 57.6989 333.259 58.0057C332.361 58.3011 331.634 58.75 331.077 59.3523C330.531 59.9432 330.259 60.75 330.259 61.7727C330.259 63.1705 330.776 64.2273 331.81 64.9432C332.855 65.6477 334.179 66 335.781 66ZM373.055 48.6818L369.442 49.7045C369.214 49.1023 368.879 48.517 368.436 47.9489C368.004 47.3693 367.413 46.892 366.663 46.517C365.913 46.142 364.953 45.9545 363.783 45.9545C362.18 45.9545 360.845 46.3239 359.777 47.0625C358.72 47.7898 358.192 48.7159 358.192 49.8409C358.192 50.8409 358.555 51.6307 359.283 52.2102C360.01 52.7898 361.146 53.2727 362.692 53.6591L366.578 54.6136C368.919 55.1818 370.663 56.0511 371.811 57.2216C372.959 58.3807 373.533 59.875 373.533 61.7045C373.533 63.2045 373.101 64.5455 372.237 65.7273C371.385 66.9091 370.192 67.8409 368.658 68.5227C367.124 69.2045 365.339 69.5455 363.305 69.5455C360.635 69.5455 358.425 68.9659 356.675 67.8068C354.925 66.6477 353.817 64.9545 353.351 62.7273L357.169 61.7727C357.533 63.1818 358.22 64.2386 359.232 64.9432C360.254 65.6477 361.589 66 363.237 66C365.112 66 366.601 65.6023 367.703 64.8068C368.817 64 369.374 63.0341 369.374 61.9091C369.374 61 369.055 60.2386 368.419 59.625C367.783 59 366.805 58.5341 365.487 58.2273L361.124 57.2045C358.726 56.6364 356.964 55.7557 355.839 54.5625C354.726 53.358 354.169 51.8523 354.169 50.0455C354.169 48.5682 354.584 47.2614 355.413 46.125C356.254 44.9886 357.396 44.0966 358.839 43.4489C360.294 42.8011 361.942 42.4773 363.783 42.4773C366.374 42.4773 368.408 43.0455 369.885 44.1818C371.374 45.3182 372.43 46.8182 373.055 48.6818ZM398.134 48.6818L394.52 49.7045C394.293 49.1023 393.957 48.517 393.514 47.9489C393.082 47.3693 392.491 46.892 391.741 46.517C390.991 46.142 390.031 45.9545 388.861 45.9545C387.259 45.9545 385.923 46.3239 384.855 47.0625C383.798 47.7898 383.27 48.7159 383.27 49.8409C383.27 50.8409 383.634 51.6307 384.361 52.2102C385.088 52.7898 386.224 53.2727 387.77 53.6591L391.656 54.6136C393.997 55.1818 395.741 56.0511 396.889 57.2216C398.037 58.3807 398.611 59.875 398.611 61.7045C398.611 63.2045 398.179 64.5455 397.315 65.7273C396.463 66.9091 395.27 67.8409 393.736 68.5227C392.202 69.2045 390.418 69.5455 388.384 69.5455C385.713 69.5455 383.503 68.9659 381.753 67.8068C380.003 66.6477 378.895 64.9545 378.429 62.7273L382.247 61.7727C382.611 63.1818 383.298 64.2386 384.31 64.9432C385.332 65.6477 386.668 66 388.315 66C390.19 66 391.679 65.6023 392.781 64.8068C393.895 64 394.452 63.0341 394.452 61.9091C394.452 61 394.134 60.2386 393.497 59.625C392.861 59 391.884 58.5341 390.565 58.2273L386.202 57.2045C383.804 56.6364 382.043 55.7557 380.918 54.5625C379.804 53.358 379.247 51.8523 379.247 50.0455C379.247 48.5682 379.662 47.2614 380.491 46.125C381.332 44.9886 382.474 44.0966 383.918 43.4489C385.372 42.8011 387.02 42.4773 388.861 42.4773C391.452 42.4773 393.486 43.0455 394.963 44.1818C396.452 45.3182 397.509 46.8182 398.134 48.6818ZM410.598 69L402.621 42.8182H406.848L412.507 62.8636H412.78L418.371 42.8182H422.666L428.189 62.7955H428.462L434.121 42.8182H438.348L430.371 69H426.416L420.689 48.8864H420.28L414.553 69H410.598ZM453.412 69.5455C451.048 69.5455 448.974 68.983 447.19 67.858C445.418 66.733 444.031 65.1591 443.031 63.1364C442.043 61.1136 441.548 58.75 441.548 56.0455C441.548 53.3182 442.043 50.9375 443.031 48.9034C444.031 46.8693 445.418 45.2898 447.19 44.1648C448.974 43.0398 451.048 42.4773 453.412 42.4773C455.776 42.4773 457.844 43.0398 459.616 44.1648C461.401 45.2898 462.787 46.8693 463.776 48.9034C464.776 50.9375 465.276 53.3182 465.276 56.0455C465.276 58.75 464.776 61.1136 463.776 63.1364C462.787 65.1591 461.401 66.733 459.616 67.858C457.844 68.983 455.776 69.5455 453.412 69.5455ZM453.412 65.9318C455.207 65.9318 456.685 65.4716 457.844 64.5511C459.003 63.6307 459.861 62.4205 460.418 60.9205C460.974 59.4205 461.253 57.7955 461.253 56.0455C461.253 54.2955 460.974 52.6648 460.418 51.1534C459.861 49.642 459.003 48.4205 457.844 47.4886C456.685 46.5568 455.207 46.0909 453.412 46.0909C451.616 46.0909 450.139 46.5568 448.98 47.4886C447.821 48.4205 446.963 49.642 446.406 51.1534C445.849 52.6648 445.571 54.2955 445.571 56.0455C445.571 57.7955 445.849 59.4205 446.406 60.9205C446.963 62.4205 447.821 63.6307 448.98 64.5511C450.139 65.4716 451.616 65.9318 453.412 65.9318ZM471.416 69V42.8182H475.303V46.7727H475.575C476.053 45.4773 476.916 44.4261 478.166 43.6193C479.416 42.8125 480.825 42.4091 482.393 42.4091C482.689 42.4091 483.058 42.4148 483.501 42.4261C483.945 42.4375 484.28 42.4545 484.507 42.4773V46.5682C484.371 46.5341 484.058 46.483 483.57 46.4148C483.092 46.3352 482.587 46.2955 482.053 46.2955C480.78 46.2955 479.643 46.5625 478.643 47.0966C477.655 47.6193 476.871 48.3466 476.291 49.2784C475.723 50.1989 475.439 51.25 475.439 52.4318V69H471.416ZM498.365 69.5455C496.183 69.5455 494.257 68.9943 492.587 67.892C490.916 66.7784 489.609 65.2102 488.666 63.1875C487.723 61.1534 487.251 58.75 487.251 55.9773C487.251 53.2273 487.723 50.8409 488.666 48.8182C489.609 46.7955 490.922 45.233 492.604 44.1307C494.286 43.0284 496.229 42.4773 498.433 42.4773C500.138 42.4773 501.484 42.7614 502.473 43.3295C503.473 43.8864 504.234 44.5227 504.757 45.2386C505.291 45.9432 505.706 46.5227 506.001 46.9773H506.342V34.0909H510.365V69H506.479V64.9773H506.001C505.706 65.4545 505.286 66.0568 504.74 66.7841C504.195 67.5 503.416 68.142 502.405 68.7102C501.393 69.267 500.047 69.5455 498.365 69.5455ZM498.911 65.9318C500.524 65.9318 501.888 65.5114 503.001 64.6705C504.115 63.8182 504.962 62.642 505.541 61.142C506.121 59.6307 506.411 57.8864 506.411 55.9091C506.411 53.9545 506.126 52.2443 505.558 50.7784C504.99 49.3011 504.149 48.1534 503.036 47.3352C501.922 46.5057 500.547 46.0909 498.911 46.0909C497.206 46.0909 495.786 46.5284 494.649 47.4034C493.524 48.267 492.678 49.4432 492.109 50.9318C491.553 52.4091 491.274 54.0682 491.274 55.9091C491.274 57.7727 491.558 59.4659 492.126 60.9886C492.706 62.5 493.558 63.7045 494.683 64.6023C495.82 65.4886 497.229 65.9318 498.911 65.9318Z" fill="#2B2B2B"/>
<path fill-rule="evenodd" clip-rule="evenodd" d="M99.5774 59.5305L95.6316 59.0158C95.8882 57.0486 96.0208 55.0408 96.0208 53C96.0208 50.9592 95.8882 48.9514 95.6316 46.9842L99.5774 46.4695C99.8562 48.6069 100 50.7866 100 53C100 55.2134 99.8562 57.3931 99.5774 59.5305ZM96.206 33.8606L92.5303 35.3849C90.9797 31.6457 88.9493 28.1535 86.5148 24.9855L89.67 22.5608C92.3139 26.0014 94.5203 29.7957 96.206 33.8606ZM80.4392 13.33L78.0145 16.4852C74.8465 14.0507 71.3543 12.0203 67.6151 10.4698L69.1394 6.79403C73.2043 8.47966 76.9986 10.6861 80.4392 13.33ZM56.5305 3.42261L56.0158 7.36842C54.0486 7.11183 52.0408 6.97924 50 6.97924C47.9592 6.97924 45.9514 7.11183 43.9842 7.36842L43.4695 3.42261C45.6069 3.14382 47.7866 3 50 3C52.2134 3 54.3931 3.14382 56.5305 3.42261ZM30.8606 6.79403L32.3849 10.4698C28.6457 12.0203 25.1535 14.0507 21.9855 16.4852L19.5608 13.33C23.0014 10.6861 26.7957 8.47966 30.8606 6.79403ZM10.33 22.5608C7.68607 26.0014 5.47966 29.7957 3.79402 33.8606L7.46975 35.3849C9.02034 31.6457 11.0507 28.1535 13.4852 24.9855L10.33 22.5608ZM0.422613 46.4695C0.143816 48.6069 0 50.7866 0 53C0 55.2134 0.143816 57.3931 0.422614 59.5305L4.36842 59.0158C4.11183 57.0486 3.97924 55.0408 3.97924 53C3.97924 50.9592 4.11183 48.9514 4.36842 46.9842L0.422613 46.4695ZM3.79403 72.1394L7.46975 70.6151C9.02034 74.3543 11.0507 77.8465 13.4852 81.0145L10.33 83.4392C7.68607 79.9986 5.47966 76.2043 3.79403 72.1394ZM19.5608 92.67L21.9855 89.5148C25.1535 91.9493 28.6457 93.9797 32.3849 95.5303L30.8606 99.206C26.7957 97.5203 23.0014 95.3139 19.5608 92.67ZM43.4695 102.577L43.9842 98.6316C45.9514 98.8882 47.9592 99.0208 50 99.0208C52.0408 99.0208 54.0486 98.8882 56.0158 98.6316L56.5305 102.577C54.3931 102.856 52.2134 103 50 103C47.7866 103 45.6069 102.856 43.4695 102.577ZM69.1394 99.206L67.6151 95.5303C71.3543 93.9797 74.8465 91.9493 78.0145 89.5148L80.4392 92.67C76.9986 95.3139 73.2043 97.5203 69.1394 99.206ZM89.67 83.4392L86.5148 81.0145C88.9493 77.8465 90.9797 74.3543 92.5303 70.6151L96.206 72.1394C94.5203 76.2043 92.3139 79.9986 89.67 83.4392Z" fill="#2B2B2B"/>
</svg>
