<svg width="483" height="103" viewBox="0 0 483 103" fill="none" xmlns="http://www.w3.org/2000/svg">
<path d="M174.318 42.8182C174.114 41.0909 173.284 39.75 171.83 38.7955C170.375 37.8409 168.591 37.3636 166.477 37.3636C164.932 37.3636 163.58 37.6136 162.42 38.1136C161.273 38.6136 160.375 39.3011 159.727 40.1761C159.091 41.0511 158.773 42.0455 158.773 43.1591C158.773 44.0909 158.994 44.892 159.438 45.5625C159.892 46.2216 160.472 46.7727 161.176 47.2159C161.881 47.6477 162.619 48.0057 163.392 48.2898C164.165 48.5625 164.875 48.7841 165.523 48.9545L169.068 49.9091C169.977 50.1477 170.989 50.4773 172.102 50.8977C173.227 51.3182 174.301 51.892 175.324 52.6193C176.358 53.3352 177.21 54.2557 177.881 55.3807C178.551 56.5057 178.886 57.8864 178.886 59.5227C178.886 61.4091 178.392 63.1136 177.403 64.6364C176.426 66.1591 174.994 67.3693 173.108 68.267C171.233 69.1648 168.955 69.6136 166.273 69.6136C163.773 69.6136 161.608 69.2102 159.778 68.4034C157.96 67.5966 156.528 66.4716 155.483 65.0284C154.449 63.5852 153.864 61.9091 153.727 60H158.091C158.205 61.3182 158.648 62.4091 159.42 63.2727C160.205 64.125 161.193 64.7614 162.386 65.1818C163.591 65.5909 164.886 65.7955 166.273 65.7955C167.886 65.7955 169.335 65.5341 170.619 65.0114C171.903 64.4773 172.92 63.7386 173.67 62.7955C174.42 61.8409 174.795 60.7273 174.795 59.4545C174.795 58.2955 174.472 57.3523 173.824 56.625C173.176 55.8977 172.324 55.3068 171.267 54.8523C170.21 54.3977 169.068 54 167.841 53.6591L163.545 52.4318C160.818 51.6477 158.659 50.5284 157.068 49.0739C155.477 47.6193 154.682 45.7159 154.682 43.3636C154.682 41.4091 155.21 39.7045 156.267 38.25C157.335 36.7841 158.767 35.6477 160.562 34.8409C162.369 34.0227 164.386 33.6136 166.614 33.6136C168.864 33.6136 170.864 34.017 172.614 34.8239C174.364 35.6193 175.75 36.7102 176.773 38.0966C177.807 39.483 178.352 41.0568 178.409 42.8182H174.318ZM185.291 69V42.8182H189.314V69H185.291ZM187.337 38.4545C186.553 38.4545 185.876 38.1875 185.308 37.6534C184.751 37.1193 184.473 36.4773 184.473 35.7273C184.473 34.9773 184.751 34.3352 185.308 33.8011C185.876 33.267 186.553 33 187.337 33C188.121 33 188.791 33.267 189.348 33.8011C189.916 34.3352 190.2 34.9773 190.2 35.7273C190.2 36.4773 189.916 37.1193 189.348 37.6534C188.791 38.1875 188.121 38.4545 187.337 38.4545ZM207.25 79.3636C205.307 79.3636 203.636 79.1136 202.239 78.6136C200.841 78.125 199.676 77.4773 198.744 76.6705C197.824 75.875 197.091 75.0227 196.545 74.1136L199.75 71.8636C200.114 72.3409 200.574 72.8864 201.131 73.5C201.688 74.125 202.449 74.6648 203.415 75.1193C204.392 75.5852 205.67 75.8182 207.25 75.8182C209.364 75.8182 211.108 75.3068 212.483 74.2841C213.858 73.2614 214.545 71.6591 214.545 69.4773V64.1591H214.205C213.909 64.6364 213.489 65.2273 212.943 65.9318C212.409 66.625 211.636 67.2443 210.625 67.7898C209.625 68.3239 208.273 68.5909 206.568 68.5909C204.455 68.5909 202.557 68.0909 200.875 67.0909C199.205 66.0909 197.881 64.6364 196.903 62.7273C195.938 60.8182 195.455 58.5 195.455 55.7727C195.455 53.0909 195.926 50.7557 196.869 48.767C197.813 46.767 199.125 45.2216 200.807 44.1307C202.489 43.0284 204.432 42.4773 206.636 42.4773C208.341 42.4773 209.693 42.7614 210.693 43.3295C211.705 43.8864 212.477 44.5227 213.011 45.2386C213.557 45.9432 213.977 46.5227 214.273 46.9773H214.682V42.8182H218.568V69.75C218.568 72 218.057 73.8295 217.034 75.2386C216.023 76.6591 214.659 77.6989 212.943 78.358C211.239 79.0284 209.341 79.3636 207.25 79.3636ZM207.114 64.9773C208.727 64.9773 210.091 64.608 211.205 63.8693C212.318 63.1307 213.165 62.0682 213.744 60.6818C214.324 59.2955 214.614 57.6364 214.614 55.7045C214.614 53.8182 214.33 52.1534 213.761 50.7102C213.193 49.267 212.352 48.1364 211.239 47.3182C210.125 46.5 208.75 46.0909 207.114 46.0909C205.409 46.0909 203.989 46.5227 202.852 47.3864C201.727 48.25 200.881 49.4091 200.312 50.8636C199.756 52.3182 199.477 53.9318 199.477 55.7045C199.477 57.5227 199.761 59.1307 200.33 60.5284C200.909 61.9148 201.761 63.0057 202.886 63.8011C204.023 64.5852 205.432 64.9773 207.114 64.9773ZM229.955 53.25V69H225.932V42.8182H229.818V46.9091H230.159C230.773 45.5795 231.705 44.5114 232.955 43.7045C234.205 42.8864 235.818 42.4773 237.795 42.4773C239.568 42.4773 241.119 42.8409 242.449 43.5682C243.778 44.2841 244.813 45.375 245.551 46.8409C246.29 48.2955 246.659 50.1364 246.659 52.3636V69H242.636V52.6364C242.636 50.5795 242.102 48.9773 241.034 47.8295C239.966 46.6705 238.5 46.0909 236.636 46.0909C235.352 46.0909 234.205 46.3693 233.193 46.9261C232.193 47.483 231.403 48.2955 230.824 49.3636C230.244 50.4318 229.955 51.7273 229.955 53.25ZM290.964 34.0909H295.192V57.2045C295.192 59.5909 294.629 61.7216 293.504 63.5966C292.391 65.4602 290.817 66.9318 288.783 68.0114C286.749 69.0795 284.362 69.6136 281.624 69.6136C278.885 69.6136 276.499 69.0795 274.464 68.0114C272.43 66.9318 270.851 65.4602 269.726 63.5966C268.612 61.7216 268.055 59.5909 268.055 57.2045V34.0909H272.283V56.8636C272.283 58.5682 272.658 60.0852 273.408 61.4148C274.158 62.733 275.226 63.7727 276.612 64.5341C278.01 65.2841 279.68 65.6591 281.624 65.6591C283.567 65.6591 285.237 65.2841 286.635 64.5341C288.033 63.7727 289.101 62.733 289.839 61.4148C290.589 60.0852 290.964 58.5682 290.964 56.8636V34.0909ZM303.088 78.8182V42.8182H306.974V46.9773H307.452C307.747 46.5227 308.156 45.9432 308.679 45.2386C309.213 44.5227 309.974 43.8864 310.963 43.3295C311.963 42.7614 313.315 42.4773 315.02 42.4773C317.224 42.4773 319.168 43.0284 320.849 44.1307C322.531 45.233 323.844 46.7955 324.787 48.8182C325.73 50.8409 326.202 53.2273 326.202 55.9773C326.202 58.75 325.73 61.1534 324.787 63.1875C323.844 65.2102 322.537 66.7784 320.866 67.892C319.196 68.9943 317.27 69.5455 315.088 69.5455C313.406 69.5455 312.06 69.267 311.048 68.7102C310.037 68.142 309.259 67.5 308.713 66.7841C308.168 66.0568 307.747 65.4545 307.452 64.9773H307.111V78.8182H303.088ZM307.043 55.9091C307.043 57.8864 307.332 59.6307 307.912 61.142C308.491 62.642 309.338 63.8182 310.452 64.6705C311.565 65.5114 312.929 65.9318 314.543 65.9318C316.224 65.9318 317.628 65.4886 318.753 64.6023C319.889 63.7045 320.741 62.5 321.31 60.9886C321.889 59.4659 322.179 57.7727 322.179 55.9091C322.179 54.0682 321.895 52.4091 321.327 50.9318C320.77 49.4432 319.923 48.267 318.787 47.4034C317.662 46.5284 316.247 46.0909 314.543 46.0909C312.906 46.0909 311.531 46.5057 310.418 47.3352C309.304 48.1534 308.463 49.3011 307.895 50.7784C307.327 52.2443 307.043 53.9545 307.043 55.9091Z" fill="#2B2B2B"/>
<path fill-rule="evenodd" clip-rule="evenodd" d="M99.5774 59.5305L95.6316 59.0158C95.8882 57.0486 96.0208 55.0408 96.0208 53C96.0208 50.9592 95.8882 48.9514 95.6316 46.9842L99.5774 46.4695C99.8562 48.6069 100 50.7866 100 53C100 55.2134 99.8562 57.3931 99.5774 59.5305ZM96.206 33.8606L92.5303 35.3849C90.9797 31.6457 88.9493 28.1535 86.5148 24.9855L89.67 22.5608C92.3139 26.0014 94.5203 29.7957 96.206 33.8606ZM80.4392 13.33L78.0145 16.4852C74.8465 14.0507 71.3543 12.0203 67.6151 10.4698L69.1394 6.79403C73.2043 8.47966 76.9986 10.6861 80.4392 13.33ZM56.5305 3.42261L56.0158 7.36842C54.0486 7.11183 52.0408 6.97924 50 6.97924C47.9592 6.97924 45.9514 7.11183 43.9842 7.36842L43.4695 3.42261C45.6069 3.14382 47.7866 3 50 3C52.2134 3 54.3931 3.14382 56.5305 3.42261ZM30.8606 6.79403L32.3849 10.4698C28.6457 12.0203 25.1535 14.0507 21.9855 16.4852L19.5608 13.33C23.0014 10.6861 26.7957 8.47966 30.8606 6.79403ZM10.33 22.5608C7.68607 26.0014 5.47966 29.7957 3.79402 33.8606L7.46975 35.3849C9.02034 31.6457 11.0507 28.1535 13.4852 24.9855L10.33 22.5608ZM0.422613 46.4695C0.143816 48.6069 0 50.7866 0 53C0 55.2134 0.143816 57.3931 0.422614 59.5305L4.36842 59.0158C4.11183 57.0486 3.97924 55.0408 3.97924 53C3.97924 50.9592 4.11183 48.9514 4.36842 46.9842L0.422613 46.4695ZM3.79403 72.1394L7.46975 70.6151C9.02034 74.3543 11.0507 77.8465 13.4852 81.0145L10.33 83.4392C7.68607 79.9986 5.47966 76.2043 3.79403 72.1394ZM19.5608 92.67L21.9855 89.5148C25.1535 91.9493 28.6457 93.9797 32.3849 95.5303L30.8606 99.206C26.7957 97.5203 23.0014 95.3139 19.5608 92.67ZM43.4695 102.577L43.9842 98.6316C45.9514 98.8882 47.9592 99.0208 50 99.0208C52.0408 99.0208 54.0486 98.8882 56.0158 98.6316L56.5305 102.577C54.3931 102.856 52.2134 103 50 103C47.7866 103 45.6069 102.856 43.4695 102.577ZM69.1394 99.206L67.6151 95.5303C71.3543 93.9797 74.8465 91.9493 78.0145 89.5148L80.4392 92.67C76.9986 95.3139 73.2043 97.5203 69.1394 99.206ZM89.67 83.4392L86.5148 81.0145C88.9493 77.8465 90.9797 74.3543 92.5303 70.6151L96.206 72.1394C94.5203 76.2043 92.3139 79.9986 89.67 83.4392Z" fill="#2B2B2B"/>
</svg>
