<svg width="56" height="81" viewBox="0 0 56 81" fill="none" xmlns="http://www.w3.org/2000/svg">
<path d="M28 0C12.561 0 0 12.561 0 28C0 43.439 12.561 56 28 56C43.439 56 56 43.439 56 28C56 12.561 43.439 0 28 0ZM28 2.2398C42.2046 2.2398 53.76 13.796 53.76 27.9998C53.76 34.3538 51.4428 40.1732 47.6154 44.6702C45.1334 35.8874 39.535 34.021 34.417 32.985C38.2444 30.0038 40.449 25.4756 40.3146 20.8732C40.099 13.5248 35.3802 8.96 27.9998 8.96C21.092 8.96 15.6794 14.3718 15.6794 21.2804C15.6794 25.728 17.8834 30.1022 21.5966 33.0022C16.4646 34.0233 10.8662 35.8882 8.3842 44.6702C4.5568 40.1734 2.2396 34.3538 2.2396 27.9998C2.2396 13.7958 13.795 2.2398 27.9996 2.2398H28ZM10.211 46.6038C12.179 37.892 17.1188 36.1764 22.0352 35.1992C22.9063 35.0258 23.5743 34.3851 23.7766 33.5281C23.9836 32.6578 23.668 31.7711 22.9555 31.2157C19.8023 28.7563 17.9203 25.0415 17.9203 21.2789C17.9203 16.3921 21.4531 11.1993 27.9999 11.1993C34.2217 11.1993 37.8937 14.7485 38.0741 20.9391C38.1882 24.8313 36.3069 28.6735 33.0397 31.2187C32.3272 31.7742 32.0139 32.6593 32.2209 33.5281C32.4248 34.3859 33.0913 35.0258 33.9623 35.1992C38.8803 36.1773 43.8217 37.8938 45.7897 46.6038C41.1607 51.0312 34.8943 53.7592 27.9999 53.7592C21.1055 53.7592 14.8389 51.031 10.2109 46.6038H10.211Z" fill="#2B2B2B"/>
<path d="M28.5 81L17.6747 62.25L39.3253 62.25L28.5 81Z" fill="#2B2B2B"/>
</svg>
