<svg width="541" height="103" viewBox="0 0 541 103" fill="none" xmlns="http://www.w3.org/2000/svg">
<path d="M174.318 42.8182C174.114 41.0909 173.284 39.75 171.83 38.7955C170.375 37.8409 168.591 37.3636 166.477 37.3636C164.932 37.3636 163.58 37.6136 162.42 38.1136C161.273 38.6136 160.375 39.3011 159.727 40.1761C159.091 41.0511 158.773 42.0455 158.773 43.1591C158.773 44.0909 158.994 44.892 159.438 45.5625C159.892 46.2216 160.472 46.7727 161.176 47.2159C161.881 47.6477 162.619 48.0057 163.392 48.2898C164.165 48.5625 164.875 48.7841 165.523 48.9545L169.068 49.9091C169.977 50.1477 170.989 50.4773 172.102 50.8977C173.227 51.3182 174.301 51.892 175.324 52.6193C176.358 53.3352 177.21 54.2557 177.881 55.3807C178.551 56.5057 178.886 57.8864 178.886 59.5227C178.886 61.4091 178.392 63.1136 177.403 64.6364C176.426 66.1591 174.994 67.3693 173.108 68.267C171.233 69.1648 168.955 69.6136 166.273 69.6136C163.773 69.6136 161.608 69.2102 159.778 68.4034C157.96 67.5966 156.528 66.4716 155.483 65.0284C154.449 63.5852 153.864 61.9091 153.727 60H158.091C158.205 61.3182 158.648 62.4091 159.42 63.2727C160.205 64.125 161.193 64.7614 162.386 65.1818C163.591 65.5909 164.886 65.7955 166.273 65.7955C167.886 65.7955 169.335 65.5341 170.619 65.0114C171.903 64.4773 172.92 63.7386 173.67 62.7955C174.42 61.8409 174.795 60.7273 174.795 59.4545C174.795 58.2955 174.472 57.3523 173.824 56.625C173.176 55.8977 172.324 55.3068 171.267 54.8523C170.21 54.3977 169.068 54 167.841 53.6591L163.545 52.4318C160.818 51.6477 158.659 50.5284 157.068 49.0739C155.477 47.6193 154.682 45.7159 154.682 43.3636C154.682 41.4091 155.21 39.7045 156.267 38.25C157.335 36.7841 158.767 35.6477 160.562 34.8409C162.369 34.0227 164.386 33.6136 166.614 33.6136C168.864 33.6136 170.864 34.017 172.614 34.8239C174.364 35.6193 175.75 36.7102 176.773 38.0966C177.807 39.483 178.352 41.0568 178.409 42.8182H174.318ZM201.791 58.2955V42.8182H205.814V69H201.791V64.5682H201.518C200.905 65.8977 199.95 67.0284 198.655 67.9602C197.359 68.8807 195.723 69.3409 193.746 69.3409C192.109 69.3409 190.655 68.983 189.382 68.267C188.109 67.5398 187.109 66.4489 186.382 64.9943C185.655 63.5284 185.291 61.6818 185.291 59.4545V42.8182H189.314V59.1818C189.314 61.0909 189.848 62.6136 190.916 63.75C191.996 64.8864 193.371 65.4545 195.041 65.4545C196.041 65.4545 197.058 65.1989 198.092 64.6875C199.138 64.1761 200.013 63.392 200.717 62.3352C201.433 61.2784 201.791 59.9318 201.791 58.2955ZM223.818 69.5455C221.364 69.5455 219.25 68.9659 217.477 67.8068C215.705 66.6477 214.341 65.0511 213.386 63.017C212.432 60.983 211.955 58.6591 211.955 56.0455C211.955 53.3864 212.443 51.0398 213.42 49.0057C214.409 46.9602 215.784 45.3636 217.545 44.2159C219.318 43.0568 221.386 42.4773 223.75 42.4773C225.591 42.4773 227.25 42.8182 228.727 43.5C230.205 44.1818 231.415 45.1364 232.358 46.3636C233.301 47.5909 233.886 49.0227 234.114 50.6591H230.091C229.784 49.4659 229.102 48.4091 228.045 47.4886C227 46.5568 225.591 46.0909 223.818 46.0909C222.25 46.0909 220.875 46.5 219.693 47.3182C218.523 48.125 217.608 49.267 216.949 50.7443C216.301 52.2102 215.977 53.9318 215.977 55.9091C215.977 57.9318 216.295 59.6932 216.932 61.1932C217.58 62.6932 218.489 63.858 219.659 64.6875C220.841 65.517 222.227 65.9318 223.818 65.9318C224.864 65.9318 225.812 65.75 226.665 65.3864C227.517 65.0227 228.239 64.5 228.83 63.8182C229.42 63.1364 229.841 62.3182 230.091 61.3636H234.114C233.886 62.9091 233.324 64.3011 232.426 65.5398C231.54 66.767 230.364 67.7443 228.898 68.4716C227.443 69.1875 225.75 69.5455 223.818 69.5455ZM250.631 69.5455C248.176 69.5455 246.063 68.9659 244.29 67.8068C242.517 66.6477 241.153 65.0511 240.199 63.017C239.244 60.983 238.767 58.6591 238.767 56.0455C238.767 53.3864 239.256 51.0398 240.233 49.0057C241.222 46.9602 242.597 45.3636 244.358 44.2159C246.131 43.0568 248.199 42.4773 250.562 42.4773C252.403 42.4773 254.062 42.8182 255.54 43.5C257.017 44.1818 258.227 45.1364 259.17 46.3636C260.114 47.5909 260.699 49.0227 260.926 50.6591H256.903C256.597 49.4659 255.915 48.4091 254.858 47.4886C253.813 46.5568 252.403 46.0909 250.631 46.0909C249.063 46.0909 247.688 46.5 246.506 47.3182C245.335 48.125 244.42 49.267 243.761 50.7443C243.114 52.2102 242.79 53.9318 242.79 55.9091C242.79 57.9318 243.108 59.6932 243.744 61.1932C244.392 62.6932 245.301 63.858 246.472 64.6875C247.653 65.517 249.04 65.9318 250.631 65.9318C251.676 65.9318 252.625 65.75 253.477 65.3864C254.33 65.0227 255.051 64.5 255.642 63.8182C256.233 63.1364 256.653 62.3182 256.903 61.3636H260.926C260.699 62.9091 260.136 64.3011 259.239 65.5398C258.352 66.767 257.176 67.7443 255.71 68.4716C254.256 69.1875 252.563 69.5455 250.631 69.5455ZM277.784 69.5455C275.261 69.5455 273.085 68.9886 271.256 67.875C269.438 66.75 268.034 65.1818 267.045 63.1705C266.068 61.1477 265.58 58.7955 265.58 56.1136C265.58 53.4318 266.068 51.0682 267.045 49.0227C268.034 46.9659 269.409 45.3636 271.17 44.2159C272.943 43.0568 275.011 42.4773 277.375 42.4773C278.739 42.4773 280.085 42.7045 281.415 43.1591C282.744 43.6136 283.955 44.3523 285.045 45.375C286.136 46.3864 287.006 47.7273 287.653 49.3977C288.301 51.0682 288.625 53.125 288.625 55.5682V57.2727H268.443V53.7955H284.534C284.534 52.3182 284.239 51 283.648 49.8409C283.068 48.6818 282.239 47.767 281.159 47.0966C280.091 46.4261 278.83 46.0909 277.375 46.0909C275.773 46.0909 274.386 46.4886 273.216 47.2841C272.057 48.0682 271.165 49.0909 270.54 50.3523C269.915 51.6136 269.602 52.9659 269.602 54.4091V56.7273C269.602 58.7045 269.943 60.3807 270.625 61.7557C271.318 63.1193 272.278 64.1591 273.506 64.875C274.733 65.5795 276.159 65.9318 277.784 65.9318C278.841 65.9318 279.795 65.7841 280.648 65.4886C281.511 65.1818 282.256 64.7273 282.881 64.125C283.506 63.5114 283.989 62.75 284.33 61.8409L288.216 62.9318C287.807 64.25 287.119 65.4091 286.153 66.4091C285.188 67.3977 283.994 68.1705 282.574 68.7273C281.153 69.2727 279.557 69.5455 277.784 69.5455ZM313.29 48.6818L309.676 49.7045C309.449 49.1023 309.114 48.517 308.67 47.9489C308.239 47.3693 307.648 46.892 306.898 46.517C306.148 46.142 305.188 45.9545 304.017 45.9545C302.415 45.9545 301.08 46.3239 300.011 47.0625C298.955 47.7898 298.426 48.7159 298.426 49.8409C298.426 50.8409 298.79 51.6307 299.517 52.2102C300.244 52.7898 301.381 53.2727 302.926 53.6591L306.812 54.6136C309.153 55.1818 310.898 56.0511 312.045 57.2216C313.193 58.3807 313.767 59.875 313.767 61.7045C313.767 63.2045 313.335 64.5455 312.472 65.7273C311.619 66.9091 310.426 67.8409 308.892 68.5227C307.358 69.2045 305.574 69.5455 303.54 69.5455C300.869 69.5455 298.659 68.9659 296.909 67.8068C295.159 66.6477 294.051 64.9545 293.585 62.7273L297.403 61.7727C297.767 63.1818 298.455 64.2386 299.466 64.9432C300.489 65.6477 301.824 66 303.472 66C305.347 66 306.835 65.6023 307.938 64.8068C309.051 64 309.608 63.0341 309.608 61.9091C309.608 61 309.29 60.2386 308.653 59.625C308.017 59 307.04 58.5341 305.722 58.2273L301.358 57.2045C298.96 56.6364 297.199 55.7557 296.074 54.5625C294.96 53.358 294.403 51.8523 294.403 50.0455C294.403 48.5682 294.818 47.2614 295.648 46.125C296.489 44.9886 297.631 44.0966 299.074 43.4489C300.528 42.8011 302.176 42.4773 304.017 42.4773C306.608 42.4773 308.642 43.0455 310.119 44.1818C311.608 45.3182 312.665 46.8182 313.29 48.6818ZM338.368 48.6818L334.754 49.7045C334.527 49.1023 334.192 48.517 333.749 47.9489C333.317 47.3693 332.726 46.892 331.976 46.517C331.226 46.142 330.266 45.9545 329.095 45.9545C327.493 45.9545 326.158 46.3239 325.089 47.0625C324.033 47.7898 323.504 48.7159 323.504 49.8409C323.504 50.8409 323.868 51.6307 324.595 52.2102C325.322 52.7898 326.459 53.2727 328.004 53.6591L331.891 54.6136C334.232 55.1818 335.976 56.0511 337.124 57.2216C338.271 58.3807 338.845 59.875 338.845 61.7045C338.845 63.2045 338.413 64.5455 337.55 65.7273C336.697 66.9091 335.504 67.8409 333.97 68.5227C332.436 69.2045 330.652 69.5455 328.618 69.5455C325.947 69.5455 323.737 68.9659 321.987 67.8068C320.237 66.6477 319.129 64.9545 318.663 62.7273L322.482 61.7727C322.845 63.1818 323.533 64.2386 324.544 64.9432C325.567 65.6477 326.902 66 328.55 66C330.425 66 331.913 65.6023 333.016 64.8068C334.129 64 334.686 63.0341 334.686 61.9091C334.686 61 334.368 60.2386 333.732 59.625C333.095 59 332.118 58.5341 330.8 58.2273L326.436 57.2045C324.038 56.6364 322.277 55.7557 321.152 54.5625C320.038 53.358 319.482 51.8523 319.482 50.0455C319.482 48.5682 319.896 47.2614 320.726 46.125C321.567 44.9886 322.709 44.0966 324.152 43.4489C325.607 42.8011 327.254 42.4773 329.095 42.4773C331.686 42.4773 333.72 43.0455 335.197 44.1818C336.686 45.3182 337.743 46.8182 338.368 48.6818ZM378.037 42.8182C377.832 41.0909 377.003 39.75 375.548 38.7955C374.094 37.8409 372.31 37.3636 370.196 37.3636C368.651 37.3636 367.298 37.6136 366.139 38.1136C364.991 38.6136 364.094 39.3011 363.446 40.1761C362.81 41.0511 362.491 42.0455 362.491 43.1591C362.491 44.0909 362.713 44.892 363.156 45.5625C363.611 46.2216 364.19 46.7727 364.895 47.2159C365.599 47.6477 366.338 48.0057 367.111 48.2898C367.884 48.5625 368.594 48.7841 369.241 48.9545L372.787 49.9091C373.696 50.1477 374.707 50.4773 375.821 50.8977C376.946 51.3182 378.02 51.892 379.043 52.6193C380.077 53.3352 380.929 54.2557 381.599 55.3807C382.27 56.5057 382.605 57.8864 382.605 59.5227C382.605 61.4091 382.111 63.1136 381.122 64.6364C380.145 66.1591 378.713 67.3693 376.827 68.267C374.952 69.1648 372.673 69.6136 369.991 69.6136C367.491 69.6136 365.327 69.2102 363.497 68.4034C361.679 67.5966 360.247 66.4716 359.202 65.0284C358.168 63.5852 357.582 61.9091 357.446 60H361.81C361.923 61.3182 362.366 62.4091 363.139 63.2727C363.923 64.125 364.912 64.7614 366.105 65.1818C367.31 65.5909 368.605 65.7955 369.991 65.7955C371.605 65.7955 373.054 65.5341 374.338 65.0114C375.622 64.4773 376.639 63.7386 377.389 62.7955C378.139 61.8409 378.514 60.7273 378.514 59.4545C378.514 58.2955 378.19 57.3523 377.543 56.625C376.895 55.8977 376.043 55.3068 374.986 54.8523C373.929 54.3977 372.787 54 371.56 53.6591L367.264 52.4318C364.537 51.6477 362.378 50.5284 360.787 49.0739C359.196 47.6193 358.401 45.7159 358.401 43.3636C358.401 41.4091 358.929 39.7045 359.986 38.25C361.054 36.7841 362.486 35.6477 364.281 34.8409C366.088 34.0227 368.105 33.6136 370.332 33.6136C372.582 33.6136 374.582 34.017 376.332 34.8239C378.082 35.6193 379.469 36.7102 380.491 38.0966C381.526 39.483 382.071 41.0568 382.128 42.8182H378.037ZM399.987 69.5455C397.464 69.5455 395.288 68.9886 393.459 67.875C391.641 66.75 390.237 65.1818 389.249 63.1705C388.271 61.1477 387.783 58.7955 387.783 56.1136C387.783 53.4318 388.271 51.0682 389.249 49.0227C390.237 46.9659 391.612 45.3636 393.374 44.2159C395.146 43.0568 397.214 42.4773 399.578 42.4773C400.942 42.4773 402.288 42.7045 403.618 43.1591C404.947 43.6136 406.158 44.3523 407.249 45.375C408.339 46.3864 409.209 47.7273 409.857 49.3977C410.504 51.0682 410.828 53.125 410.828 55.5682V57.2727H390.646V53.7955H406.737C406.737 52.3182 406.442 51 405.851 49.8409C405.271 48.6818 404.442 47.767 403.362 47.0966C402.294 46.4261 401.033 46.0909 399.578 46.0909C397.976 46.0909 396.589 46.4886 395.419 47.2841C394.26 48.0682 393.368 49.0909 392.743 50.3523C392.118 51.6136 391.805 52.9659 391.805 54.4091V56.7273C391.805 58.7045 392.146 60.3807 392.828 61.7557C393.521 63.1193 394.482 64.1591 395.709 64.875C396.936 65.5795 398.362 65.9318 399.987 65.9318C401.044 65.9318 401.999 65.7841 402.851 65.4886C403.714 65.1818 404.459 64.7273 405.084 64.125C405.709 63.5114 406.192 62.75 406.533 61.8409L410.419 62.9318C410.01 64.25 409.322 65.4091 408.357 66.4091C407.391 67.3977 406.197 68.1705 404.777 68.7273C403.357 69.2727 401.76 69.5455 399.987 69.5455ZM420.97 53.25V69H416.947V42.8182H420.834V46.9091H421.175C421.788 45.5795 422.72 44.5114 423.97 43.7045C425.22 42.8864 426.834 42.4773 428.811 42.4773C430.584 42.4773 432.135 42.8409 433.464 43.5682C434.794 44.2841 435.828 45.375 436.567 46.8409C437.305 48.2955 437.675 50.1364 437.675 52.3636V69H433.652V52.6364C433.652 50.5795 433.118 48.9773 432.05 47.8295C430.982 46.6705 429.516 46.0909 427.652 46.0909C426.368 46.0909 425.22 46.3693 424.209 46.9261C423.209 47.483 422.419 48.2955 421.839 49.3636C421.26 50.4318 420.97 51.7273 420.97 53.25ZM454.912 69.5455C452.73 69.5455 450.804 68.9943 449.134 67.892C447.463 66.7784 446.156 65.2102 445.213 63.1875C444.27 61.1534 443.798 58.75 443.798 55.9773C443.798 53.2273 444.27 50.8409 445.213 48.8182C446.156 46.7955 447.469 45.233 449.151 44.1307C450.832 43.0284 452.776 42.4773 454.98 42.4773C456.685 42.4773 458.031 42.7614 459.02 43.3295C460.02 43.8864 460.781 44.5227 461.304 45.2386C461.838 45.9432 462.253 46.5227 462.548 46.9773H462.889V34.0909H466.912V69H463.026V64.9773H462.548C462.253 65.4545 461.832 66.0568 461.287 66.7841C460.741 67.5 459.963 68.142 458.952 68.7102C457.94 69.267 456.594 69.5455 454.912 69.5455ZM455.457 65.9318C457.071 65.9318 458.435 65.5114 459.548 64.6705C460.662 63.8182 461.509 62.642 462.088 61.142C462.668 59.6307 462.957 57.8864 462.957 55.9091C462.957 53.9545 462.673 52.2443 462.105 50.7784C461.537 49.3011 460.696 48.1534 459.582 47.3352C458.469 46.5057 457.094 46.0909 455.457 46.0909C453.753 46.0909 452.332 46.5284 451.196 47.4034C450.071 48.267 449.224 49.4432 448.656 50.9318C448.099 52.4091 447.821 54.0682 447.821 55.9091C447.821 57.7727 448.105 59.4659 448.673 60.9886C449.253 62.5 450.105 63.7045 451.23 64.6023C452.366 65.4886 453.776 65.9318 455.457 65.9318ZM474.838 69V42.8182H478.861V69H474.838ZM476.884 38.4545C476.099 38.4545 475.423 38.1875 474.855 37.6534C474.298 37.1193 474.02 36.4773 474.02 35.7273C474.02 34.9773 474.298 34.3352 474.855 33.8011C475.423 33.267 476.099 33 476.884 33C477.668 33 478.338 33.267 478.895 33.8011C479.463 34.3352 479.747 34.9773 479.747 35.7273C479.747 36.4773 479.463 37.1193 478.895 37.6534C478.338 38.1875 477.668 38.4545 476.884 38.4545ZM490.251 53.25V69H486.229V42.8182H490.115V46.9091H490.456C491.07 45.5795 492.001 44.5114 493.251 43.7045C494.501 42.8864 496.115 42.4773 498.092 42.4773C499.865 42.4773 501.416 42.8409 502.746 43.5682C504.075 44.2841 505.109 45.375 505.848 46.8409C506.587 48.2955 506.956 50.1364 506.956 52.3636V69H502.933V52.6364C502.933 50.5795 502.399 48.9773 501.331 47.8295C500.263 46.6705 498.797 46.0909 496.933 46.0909C495.649 46.0909 494.501 46.3693 493.49 46.9261C492.49 47.483 491.7 48.2955 491.121 49.3636C490.541 50.4318 490.251 51.7273 490.251 53.25ZM524.875 79.3636C522.932 79.3636 521.261 79.1136 519.864 78.6136C518.466 78.125 517.301 77.4773 516.369 76.6705C515.449 75.875 514.716 75.0227 514.17 74.1136L517.375 71.8636C517.739 72.3409 518.199 72.8864 518.756 73.5C519.313 74.125 520.074 74.6648 521.04 75.1193C522.017 75.5852 523.295 75.8182 524.875 75.8182C526.989 75.8182 528.733 75.3068 530.108 74.2841C531.483 73.2614 532.17 71.6591 532.17 69.4773V64.1591H531.83C531.534 64.6364 531.114 65.2273 530.568 65.9318C530.034 66.625 529.261 67.2443 528.25 67.7898C527.25 68.3239 525.898 68.5909 524.193 68.5909C522.08 68.5909 520.182 68.0909 518.5 67.0909C516.83 66.0909 515.506 64.6364 514.528 62.7273C513.563 60.8182 513.08 58.5 513.08 55.7727C513.08 53.0909 513.551 50.7557 514.494 48.767C515.438 46.767 516.75 45.2216 518.432 44.1307C520.114 43.0284 522.057 42.4773 524.261 42.4773C525.966 42.4773 527.318 42.7614 528.318 43.3295C529.33 43.8864 530.102 44.5227 530.636 45.2386C531.182 45.9432 531.602 46.5227 531.898 46.9773H532.307V42.8182H536.193V69.75C536.193 72 535.682 73.8295 534.659 75.2386C533.648 76.6591 532.284 77.6989 530.568 78.358C528.864 79.0284 526.966 79.3636 524.875 79.3636ZM524.739 64.9773C526.352 64.9773 527.716 64.608 528.83 63.8693C529.943 63.1307 530.79 62.0682 531.369 60.6818C531.949 59.2955 532.239 57.6364 532.239 55.7045C532.239 53.8182 531.955 52.1534 531.386 50.7102C530.818 49.267 529.977 48.1364 528.864 47.3182C527.75 46.5 526.375 46.0909 524.739 46.0909C523.034 46.0909 521.614 46.5227 520.477 47.3864C519.352 48.25 518.506 49.4091 517.938 50.8636C517.381 52.3182 517.102 53.9318 517.102 55.7045C517.102 57.5227 517.386 59.1307 517.955 60.5284C518.534 61.9148 519.386 63.0057 520.511 63.8011C521.648 64.5852 523.057 64.9773 524.739 64.9773Z" fill="#2B2B2B"/>
<path fill-rule="evenodd" clip-rule="evenodd" d="M99.5774 59.5305L95.6316 59.0158C95.8882 57.0486 96.0208 55.0408 96.0208 53C96.0208 50.9592 95.8882 48.9514 95.6316 46.9842L99.5774 46.4695C99.8562 48.6069 100 50.7866 100 53C100 55.2134 99.8562 57.3931 99.5774 59.5305ZM96.206 33.8606L92.5303 35.3849C90.9797 31.6457 88.9493 28.1535 86.5148 24.9855L89.67 22.5608C92.3139 26.0014 94.5203 29.7957 96.206 33.8606ZM80.4392 13.33L78.0145 16.4852C74.8465 14.0507 71.3543 12.0203 67.6151 10.4698L69.1394 6.79403C73.2043 8.47966 76.9986 10.6861 80.4392 13.33ZM56.5305 3.42261L56.0158 7.36842C54.0486 7.11183 52.0408 6.97924 50 6.97924C47.9592 6.97924 45.9514 7.11183 43.9842 7.36842L43.4695 3.42261C45.6069 3.14382 47.7866 3 50 3C52.2134 3 54.3931 3.14382 56.5305 3.42261ZM30.8606 6.79403L32.3849 10.4698C28.6457 12.0203 25.1535 14.0507 21.9855 16.4852L19.5608 13.33C23.0014 10.6861 26.7957 8.47966 30.8606 6.79403ZM10.33 22.5608C7.68607 26.0014 5.47966 29.7957 3.79402 33.8606L7.46975 35.3849C9.02034 31.6457 11.0507 28.1535 13.4852 24.9855L10.33 22.5608ZM0.422613 46.4695C0.143816 48.6069 0 50.7866 0 53C0 55.2134 0.143816 57.3931 0.422614 59.5305L4.36842 59.0158C4.11183 57.0486 3.97924 55.0408 3.97924 53C3.97924 50.9592 4.11183 48.9514 4.36842 46.9842L0.422613 46.4695ZM3.79403 72.1394L7.46975 70.6151C9.02034 74.3543 11.0507 77.8465 13.4852 81.0145L10.33 83.4392C7.68607 79.9986 5.47966 76.2043 3.79403 72.1394ZM19.5608 92.67L21.9855 89.5148C25.1535 91.9493 28.6457 93.9797 32.3849 95.5303L30.8606 99.206C26.7957 97.5203 23.0014 95.3139 19.5608 92.67ZM43.4695 102.577L43.9842 98.6316C45.9514 98.8882 47.9592 99.0208 50 99.0208C52.0408 99.0208 54.0486 98.8882 56.0158 98.6316L56.5305 102.577C54.3931 102.856 52.2134 103 50 103C47.7866 103 45.6069 102.856 43.4695 102.577ZM69.1394 99.206L67.6151 95.5303C71.3543 93.9797 74.8465 91.9493 78.0145 89.5148L80.4392 92.67C76.9986 95.3139 73.2043 97.5203 69.1394 99.206ZM89.67 83.4392L86.5148 81.0145C88.9493 77.8465 90.9797 74.3543 92.5303 70.6151L96.206 72.1394C94.5203 76.2043 92.3139 79.9986 89.67 83.4392Z" fill="#2B2B2B"/>
</svg>
